<svg width="63" height="83" viewBox="0 0 63 83" fill="none" xmlns="http://www.w3.org/2000/svg">
<path d="M10.1079 0.206055C8.05483 0.206055 6.08275 1.08757 4.69592 2.62555C3.33298 4.13957 2.66147 6.16625 2.84195 8.19559H2.80878V73.3876C2.80878 77.0894 5.81069 80.1015 9.50005 80.1015H62.5286V14.8535V12.1904V0.206055H10.1079ZM5.46299 73.3876V13.5193C6.57245 14.3569 7.95131 14.8535 9.44431 14.8535V77.4329C7.24397 77.4023 5.46299 75.602 5.46299 73.3876ZM59.8744 77.4383H12.0985V14.8535H16.0798V48.4109C16.0798 49.3191 16.6651 50.0914 17.5383 50.3338C17.7201 50.383 17.9006 50.4083 18.0798 50.4083C18.0997 50.4083 18.1183 50.4017 18.1382 50.4003C18.1979 50.399 18.255 50.3844 18.3147 50.3777C18.4514 50.3617 18.5828 50.3338 18.7115 50.2898C18.7752 50.2685 18.8349 50.2432 18.8946 50.2152C19.0194 50.158 19.1335 50.0861 19.2437 50.0035C19.2914 49.9676 19.3405 49.9369 19.3843 49.897C19.5316 49.7652 19.6657 49.616 19.7718 49.4363L25.3683 40.0779L30.9647 49.4376C31.3986 50.1633 32.2108 50.5042 33.0217 50.3524C33.0814 50.3417 33.1398 50.3497 33.1995 50.3338C34.0714 50.0901 34.658 49.3178 34.658 48.4109V14.8535H59.873V77.4383H59.8744ZM32.1909 12.8335L32.1869 12.8428L32.0051 13.2077V13.2636L31.8724 13.5699L32.0051 13.7723V13.9214V45.9994L25.3696 34.9033L18.7341 45.9994V13.8362L20.8813 9.52718H33.8392L32.1909 12.8335ZM35.4795 12.1904L38.1337 6.864H19.241L16.5868 12.1904H10.3892C7.87567 12.1904 5.7231 10.3541 5.4882 8.00917C5.35417 6.68025 5.77221 5.40325 6.66535 4.41255C7.54787 3.43117 8.80332 2.86923 10.1079 2.86923H59.8744V4.20082H53.2388C52.5049 4.20082 51.9117 4.79605 51.9117 5.53241C51.9117 6.26878 52.5049 6.864 53.2388 6.864H59.8744V8.19559H54.5659C53.832 8.19559 53.2388 8.79082 53.2388 9.52718C53.2388 10.2636 53.832 10.8588 54.5659 10.8588H59.8744V12.1904H35.4795Z" fill="#FFBC42"/>
<path d="M8.10786 2.20605C6.05483 2.20605 4.08275 3.08757 2.69592 4.62555C1.33298 6.13957 0.661468 8.16625 0.841955 10.1956H0.808777V75.3876C0.808777 79.0894 3.81069 82.1014 7.50005 82.1014H60.5286V16.8535V14.1904V2.20605H8.10786ZM3.46299 75.3876V15.5193C4.57245 16.3569 5.95131 16.8535 7.44431 16.8535V79.4329C5.24397 79.4023 3.46299 77.602 3.46299 75.3876ZM57.8744 79.4383H10.0985V16.8535H14.0798V50.4109C14.0798 51.3191 14.6651 52.0914 15.5383 52.3338C15.7201 52.383 15.9006 52.4083 16.0798 52.4083C16.0997 52.4083 16.1183 52.4017 16.1382 52.4003C16.1979 52.399 16.255 52.3844 16.3147 52.3777C16.4514 52.3617 16.5828 52.3338 16.7115 52.2898C16.7752 52.2685 16.8349 52.2432 16.8946 52.2152C17.0194 52.158 17.1335 52.0861 17.2437 52.0035C17.2914 51.9676 17.3405 51.9369 17.3843 51.897C17.5316 51.7652 17.6657 51.616 17.7719 51.4363L23.3683 42.0779L28.9647 51.4376C29.3986 52.1633 30.2108 52.5042 31.0217 52.3524C31.0814 52.3417 31.1398 52.3497 31.1995 52.3338C32.0714 52.0901 32.658 51.3178 32.658 50.4109V16.8535H57.873V79.4383H57.8744ZM30.1909 14.8335L30.1869 14.8428L30.0051 15.2077V15.2636L29.8724 15.5699L30.0051 15.7723V15.9214V47.9994L23.3696 36.9033L16.7341 47.9994V15.8362L18.8813 11.5272H31.8392L30.1909 14.8335ZM33.4795 14.1904L36.1337 8.864H17.241L14.5868 14.1904H8.38921C5.87567 14.1904 3.7231 12.3541 3.4882 10.0092C3.35417 8.68024 3.77221 7.40325 4.66535 6.41255C5.54787 5.43117 6.80332 4.86923 8.10786 4.86923H57.8744V6.20082H51.2388C50.5049 6.20082 49.9117 6.79605 49.9117 7.53241C49.9117 8.26878 50.5049 8.864 51.2388 8.864H57.8744V10.1956H52.5659C51.832 10.1956 51.2388 10.7908 51.2388 11.5272C51.2388 12.2636 51.832 12.8588 52.5659 12.8588H57.8744V14.1904H33.4795Z" fill="black"/>
</svg>
