<svg width="102" height="102" viewBox="0 0 102 102" fill="none" xmlns="http://www.w3.org/2000/svg">
<path d="M52.3961 0.692595C52.0283 0.32484 51.5182 0.113281 50.9982 0.113281C50.4782 0.113281 49.9681 0.324642 49.6004 0.692595C49.2326 1.06055 49.0211 1.57046 49.0211 2.09046C49.0211 2.61046 49.2326 3.12057 49.6004 3.48813C49.9681 3.85608 50.4782 4.06764 50.9982 4.06764C51.5182 4.06764 52.0264 3.85608 52.3961 3.48813C52.7639 3.12057 52.9754 2.61046 52.9754 2.09046C52.9754 1.57046 52.7639 1.06035 52.3961 0.692595Z" fill="black"/>
<path d="M97.3473 19.2214V13.6556C97.3473 10.6566 94.9075 8.2168 91.9085 8.2168H88.4757C87.6336 3.61432 83.5962 0.113525 78.7539 0.113525H59.4515C58.3595 0.113525 57.4743 0.998907 57.4743 2.09071C57.4743 3.1825 58.3595 4.06789 59.4515 4.06789H78.7539C82.0246 4.06789 84.6855 6.72877 84.6855 9.99943V15.931H65.7124V9.99943C65.7124 8.90763 64.8273 8.02225 63.7353 8.02225H37.6365C36.5445 8.02225 35.6593 8.90763 35.6593 9.99943V15.931H16.7043V9.99943C16.7043 6.72877 19.3652 4.06789 22.6358 4.06789H42.4806C43.5726 4.06789 44.4578 3.1825 44.4578 2.09071C44.4578 0.998907 43.5726 0.113525 42.4806 0.113525H22.6358C17.7937 0.113525 13.7561 3.61412 12.914 8.2168H9.46325C6.46427 8.2168 4.02443 10.6566 4.02443 13.6556V19.2214C1.72319 20.0376 0.0700684 22.2352 0.0700684 24.8129V32.2014C0.0700684 35.472 2.73096 38.1329 6.00161 38.1329C9.27226 38.1329 11.9331 35.472 11.9331 32.2014V24.8129C11.9331 22.2354 10.28 20.0376 7.97879 19.2214V13.6556C7.97879 12.8371 8.6447 12.1712 9.46325 12.1712H12.7501V77.8167C12.7501 81.7881 15.1053 85.2179 18.4913 86.7884V93.8319C18.4913 97.9746 21.8618 101.345 26.0045 101.345C30.1473 101.345 33.5178 97.9746 33.5178 93.8319V87.7026H67.9045V93.8319C67.9045 97.9746 71.275 101.345 75.4178 101.345C79.5606 101.345 82.9311 97.9746 82.9311 93.8319V86.7739C86.2998 85.1965 88.64 81.7756 88.64 77.8167V12.1712H91.9087C92.7272 12.1712 93.3932 12.8371 93.3932 13.6556V19.2214C91.0919 20.0376 89.4388 22.2352 89.4388 24.8129V32.2014C89.4388 35.472 92.0997 38.1329 95.3703 38.1329C98.641 38.1329 101.302 35.472 101.302 32.2014V24.8129C101.302 22.2352 99.6486 20.0378 97.3473 19.2214ZM7.97879 32.2016C7.97879 33.2918 7.09183 34.1788 6.00161 34.1788C4.91139 34.1788 4.02443 33.2918 4.02443 32.2016V24.8131C4.02443 23.7228 4.91139 22.8359 6.00161 22.8359C7.09183 22.8359 7.97879 23.7228 7.97879 24.8131V32.2016ZM64.6535 19.8853L58.4944 26.0444C57.7223 26.8165 57.7223 28.0685 58.4944 28.8408C58.8805 29.2267 59.3865 29.4199 59.8924 29.4199C60.3984 29.4199 60.9045 29.2267 61.2905 28.8408L70.2459 19.8853H81.8796L52.6638 49.1009V19.8853H64.6535ZM39.6137 11.9766H61.7581V15.931H39.6137V11.9766ZM40.2626 46.4982C39.4905 45.7265 38.2387 45.7263 37.4663 46.4982L25.1763 58.7881H23.9091L17.7943 52.6733L48.7095 21.7581V58.7881H30.7688L40.2626 49.2943C41.0347 48.5222 41.0349 47.2703 40.2626 46.4982ZM16.7043 19.8853H44.9898L16.7043 48.1709V19.8853ZM29.5633 93.8319C29.5633 95.7942 27.9667 97.3908 26.0043 97.3908C24.042 97.3908 22.4454 95.7942 22.4454 93.8319V87.7026H22.6358H29.5633V93.8319ZM78.9766 93.8319C78.9766 95.7942 77.38 97.3908 75.4176 97.3908C73.4553 97.3908 71.8587 95.7942 71.8587 93.8319V87.7026H78.7539H78.9766V93.8319ZM84.6855 77.8167C84.6855 81.0874 82.0246 83.7482 78.7539 83.7482H22.6358C19.3652 83.7482 16.7043 81.0874 16.7043 77.8167V57.1757L21.6921 62.1636C22.0628 62.5343 22.5658 62.7427 23.0902 62.7427H78.2816C78.8059 62.7427 79.3089 62.5343 79.6796 62.1636L84.6855 57.1577V77.8167ZM84.6855 51.5653L77.4626 58.7881H52.6638V54.6934L84.6855 22.672V51.5653ZM97.3473 32.2016C97.3473 33.2918 96.4604 34.1788 95.3701 34.1788C94.2799 34.1788 93.393 33.2918 93.393 32.2016V24.8131C93.393 23.7228 94.2799 22.8359 95.3701 22.8359C96.4604 22.8359 97.3473 23.7228 97.3473 24.8131V32.2016Z" fill="black"/>
<path d="M27.7594 67.3135C24.4888 67.3135 21.8279 69.9744 21.8279 73.2451C21.8279 76.5157 24.4888 79.1766 27.7594 79.1766C31.0301 79.1766 33.691 76.5157 33.691 73.2451C33.691 69.9744 31.0301 67.3135 27.7594 67.3135ZM27.7594 75.2223C26.6692 75.2223 25.7822 74.3353 25.7822 73.2451C25.7822 72.1549 26.6692 71.2679 27.7594 71.2679C28.8496 71.2679 29.7366 72.1549 29.7366 73.2451C29.7366 74.3353 28.8496 75.2223 27.7594 75.2223Z" fill="black"/>
<path d="M73.6125 67.3135C70.3419 67.3135 67.681 69.9744 67.681 73.2451C67.681 76.5157 70.3419 79.1766 73.6125 79.1766C76.8832 79.1766 79.5441 76.5157 79.5441 73.2451C79.5441 69.9744 76.8832 67.3135 73.6125 67.3135ZM73.6125 75.2223C72.5223 75.2223 71.6354 74.3353 71.6354 73.2451C71.6354 72.1549 72.5223 71.2679 73.6125 71.2679C74.7027 71.2679 75.5897 72.1549 75.5897 73.2451C75.5897 74.3353 74.7027 75.2223 73.6125 75.2223Z" fill="black"/>
<path d="M60.9835 67.3135H40.4208C39.3288 67.3135 38.4437 68.1989 38.4437 69.2907V77.1994C38.4437 78.2912 39.3288 79.1766 40.4208 79.1766H60.9835C62.0755 79.1766 62.9607 78.2912 62.9607 77.1994V69.2907C62.9607 68.1987 62.0755 67.3135 60.9835 67.3135ZM59.0063 75.2223H42.398V71.2679H59.0063V75.2223Z" fill="black"/>
</svg>
