<svg width="314" height="240" viewBox="0 0 314 240" fill="none" xmlns="http://www.w3.org/2000/svg">
<path d="M218.811 87.4232H207.885C205.056 87.4232 202.762 89.7165 202.762 92.5459C202.762 95.3747 205.056 97.6686 207.885 97.6686H218.811C221.64 97.6686 223.934 95.3753 223.934 92.5459C223.933 89.7165 221.64 87.4232 218.811 87.4232Z" fill="black"/>
<path d="M220.157 129.742C218.137 127.155 215.095 125.671 211.813 125.671H94.6737C91.3911 125.671 88.35 127.155 86.3292 129.742C84.309 132.33 83.6065 135.64 84.4032 138.825L87.1354 149.754C88.316 154.475 92.5396 157.772 97.4059 157.772H209.081C213.948 157.772 218.171 154.475 219.352 149.753L222.084 138.825C222.88 135.64 222.178 132.33 220.157 129.742ZM212.144 136.341L209.412 147.269C209.374 147.422 209.238 147.527 209.081 147.527H97.4059C97.249 147.527 97.1119 147.421 97.0743 147.269L94.3421 136.341C94.3296 136.293 94.3016 136.179 94.4042 136.048C94.5067 135.917 94.6236 135.917 94.6731 135.917H211.813C211.863 135.917 211.979 135.917 212.082 136.048C212.184 136.179 212.157 136.292 212.144 136.341Z" fill="black"/>
<path d="M289.843 97.668C298.693 97.668 305.894 90.4678 305.894 81.6177C305.894 72.7676 298.693 65.5674 289.843 65.5674H284.38C276.399 65.5674 269.763 71.4229 268.534 79.062L254.869 41.4821C251.789 33.0106 243.664 27.3196 234.65 27.3196H195.69L192.807 12.9031C191.312 5.42623 184.692 0 177.068 0H129.418C121.793 0 115.175 5.42623 113.679 12.9031L110.796 27.3196H71.8364C62.8228 27.3196 54.6972 33.0112 51.6174 41.4815L37.9528 79.0614C36.7251 71.4229 30.0884 65.5674 22.1082 65.5674H16.6444C7.7937 65.5674 0.593506 72.7676 0.593506 81.6177C0.593506 90.4678 7.7937 97.668 16.6438 97.668H22.1076C24.6305 97.668 27.0181 97.0813 29.1444 96.0395L17.4333 110.679C13.6206 115.445 11.5211 121.43 11.5211 127.532V229.145C11.5211 234.983 16.27 239.732 22.1076 239.732H38.4996C44.3373 239.732 49.0861 234.983 49.0861 229.145V206.948H257.4V229.145C257.4 234.983 262.149 239.732 267.987 239.732H284.379C290.217 239.732 294.965 234.983 294.965 229.145V127.532C294.965 121.43 292.866 115.444 289.053 110.679L277.342 96.0395C279.468 97.0813 281.856 97.668 284.379 97.668H289.843ZM22.1082 87.4232H16.6444C13.4429 87.4232 10.8389 84.8192 10.8389 81.6177C10.8389 78.4162 13.4429 75.8122 16.6444 75.8122H22.1082C25.3097 75.8122 27.9137 78.4162 27.9137 81.6177C27.9137 84.8186 25.3091 87.4232 22.1082 87.4232ZM123.725 14.9114C124.266 12.2072 126.66 10.2443 129.418 10.2443H177.068C179.826 10.2443 182.22 12.2072 182.76 14.9114L185.242 27.3196H121.244L123.725 14.9114ZM38.8413 229.145C38.8413 229.333 38.688 229.487 38.4996 229.487H22.1076C21.9192 229.487 21.7659 229.333 21.7659 229.145V203.75C25.0455 205.775 28.9059 206.948 33.0352 206.948H38.8407V229.145H38.8413ZM213.689 196.703H92.7983V185.433C92.7983 185.245 92.9516 185.092 93.14 185.092H213.348C213.536 185.092 213.689 185.245 213.689 185.433V196.703H213.689ZM284.721 229.145C284.721 229.333 284.567 229.487 284.379 229.487H267.987C267.798 229.487 267.645 229.333 267.645 229.145V206.948H273.451C277.58 206.948 281.44 205.775 284.72 203.75V229.145H284.721ZM281.055 117.079C283.418 120.035 284.721 123.747 284.721 127.533V185.433C284.721 191.647 279.666 196.703 273.452 196.703H223.934V185.433C223.934 179.596 219.185 174.847 213.347 174.847H93.14C87.3023 174.847 82.5535 179.596 82.5535 185.433V196.703H33.0358C26.8219 196.703 21.7665 191.647 21.7665 185.433V127.533C21.7665 123.747 23.0688 120.035 25.4337 117.079L40.9617 97.668H186.028C188.856 97.668 191.15 95.3747 191.15 92.5453C191.15 89.7165 188.857 87.4226 186.028 87.4226H45.8137L61.2469 44.9817C62.8598 40.5447 67.1161 37.5638 71.8375 37.5638H234.651C239.372 37.5638 243.628 40.5453 245.241 44.9817L260.675 87.4226H240.669C237.84 87.4226 235.546 89.7159 235.546 92.5453C235.546 95.3741 237.839 97.668 240.669 97.668H265.527L281.055 117.079ZM278.573 81.6177C278.573 78.4162 281.177 75.8122 284.379 75.8122H289.843C293.044 75.8122 295.648 78.4162 295.648 81.6177C295.648 84.8192 293.044 87.4232 289.843 87.4232H284.379C281.178 87.4232 278.573 84.8186 278.573 81.6177Z" fill="black"/>
<path d="M54.8916 163.919C49.0539 163.919 44.3051 168.668 44.3051 174.505C44.3051 180.343 49.0539 185.092 54.8916 185.092C60.7293 185.092 65.4782 180.343 65.4782 174.505C65.4782 168.668 60.7293 163.919 54.8916 163.919Z" fill="black"/>
<path d="M251.596 163.919C245.758 163.919 241.009 168.668 241.009 174.505C241.009 180.343 245.758 185.092 251.596 185.092C257.433 185.092 262.182 180.343 262.182 174.505C262.182 168.668 257.433 163.919 251.596 163.919Z" fill="black"/>
<path d="M52.16 120.207C41.8031 120.207 33.3775 128.633 33.3775 138.99C33.3775 149.347 41.8031 157.772 52.16 157.772C62.517 157.772 70.9425 149.347 70.9425 138.99C70.9425 128.633 62.517 120.207 52.16 120.207ZM52.16 147.527C47.4523 147.527 43.6224 143.697 43.6224 138.989C43.6224 134.281 47.4517 130.451 52.16 130.451C56.8683 130.451 60.6977 134.281 60.6977 138.989C60.6977 143.697 56.8677 147.527 52.16 147.527Z" fill="black"/>
<path d="M254.327 120.207C243.97 120.207 235.545 128.633 235.545 138.99C235.545 149.347 243.97 157.772 254.327 157.772C264.684 157.772 273.11 149.347 273.11 138.99C273.11 128.633 264.684 120.207 254.327 120.207ZM254.327 147.527C249.619 147.527 245.789 143.697 245.789 138.989C245.789 134.281 249.619 130.451 254.327 130.451C259.035 130.451 262.865 134.281 262.865 138.989C262.865 143.697 259.035 147.527 254.327 147.527Z" fill="black"/>
<rect width="9.46092" height="9" transform="matrix(1 0 0 -1 15 19)" fill="black"/>
<rect width="9.46092" height="9" transform="matrix(1 0 0 -1 304 163)" fill="black"/>
<path d="M304 180.5H313.461V171.5H304V180.5Z" fill="black"/>
<path d="M304 198H313.461V189H304V198Z" fill="black"/>
<path d="M304 215H313.461V206H304V215Z" fill="black"/>
<rect width="9.46092" height="9" transform="matrix(1 0 0 -1 15 36)" fill="black"/>
<rect width="9.46092" height="9" transform="matrix(1 0 0 -1 33 19)" fill="black"/>
<rect width="54.8733" height="9" transform="matrix(1 0 0 -1 51.0486 19)" fill="black"/>
</svg>
