<svg width="93" height="74" viewBox="0 0 93 74" fill="none" xmlns="http://www.w3.org/2000/svg">
<path d="M66.4408 26.9486H63.1206C62.261 26.9486 61.564 27.6455 61.564 28.5053C61.564 29.3649 62.2609 30.062 63.1206 30.062H66.4408C67.3004 30.062 67.9974 29.3651 67.9974 28.5053C67.9972 27.6455 67.3004 26.9486 66.4408 26.9486Z" fill="black"/>
<path d="M66.8499 39.8086C66.236 39.0224 65.3117 38.5714 64.3142 38.5714H28.7182C27.7207 38.5714 26.7966 39.0224 26.1825 39.8086C25.5686 40.595 25.3552 41.6008 25.5972 42.5686L26.4275 45.8896C26.7863 47.3242 28.0697 48.3262 29.5485 48.3262H63.4841C64.9629 48.3262 66.2461 47.3242 66.6051 45.8894L67.4354 42.5686C67.6773 41.6006 67.4638 40.5948 66.8499 39.8086ZM64.415 41.8137L63.5847 45.1344C63.5731 45.1809 63.5318 45.213 63.4841 45.213H29.5485C29.5008 45.213 29.4591 45.1806 29.4477 45.1346L28.6175 41.8137C28.6137 41.7991 28.6051 41.7646 28.6363 41.7248C28.6675 41.6849 28.703 41.6849 28.718 41.6849H64.3142C64.3294 41.6849 64.3648 41.6849 64.3959 41.7248C64.4271 41.7646 64.4188 41.7989 64.415 41.8137Z" fill="black"/>
<path d="M88.0259 30.0618C90.7153 30.0618 92.9033 27.8738 92.9033 25.1845C92.9033 22.4951 90.7153 20.3071 88.0259 20.3071H86.3656C83.9406 20.3071 81.9239 22.0865 81.5506 24.4079L77.3981 12.9882C76.4622 10.4139 73.993 8.6845 71.254 8.6845H59.415L58.5387 4.30366C58.0846 2.0316 56.0729 0.38269 53.7561 0.38269H39.2762C36.9594 0.38269 34.948 2.0316 34.4936 4.30366L33.6175 8.6845H21.7785C19.0395 8.6845 16.5703 10.414 15.6344 12.988L11.4821 24.4077C11.109 22.0865 9.09222 20.3071 6.66724 20.3071H5.00691C2.31737 20.3071 0.129395 22.4951 0.129395 25.1845C0.129395 27.8738 2.31737 30.0618 5.00673 30.0618H6.66705C7.43371 30.0618 8.15923 29.8835 8.80538 29.567L5.24663 34.0156C4.08805 35.4637 3.45005 37.2824 3.45005 39.1368V70.0147C3.45005 71.7887 4.89312 73.2318 6.66705 73.2318H11.6482C13.4222 73.2318 14.8652 71.7887 14.8652 70.0147V63.2694H78.1673V70.0147C78.1673 71.7887 79.6103 73.2318 81.3843 73.2318H86.3654C88.1394 73.2318 89.5824 71.7887 89.5824 70.0147V39.1368C89.5824 37.2824 88.9444 35.4635 87.7859 34.0156L84.2271 29.567C84.8733 29.8835 85.5988 30.0618 86.3654 30.0618H88.0259ZM6.66724 26.9486H5.00691C4.03405 26.9486 3.24276 26.1573 3.24276 25.1845C3.24276 24.2116 4.03405 23.4203 5.00691 23.4203H6.66724C7.64009 23.4203 8.43139 24.2116 8.43139 25.1845C8.43139 26.1572 7.63991 26.9486 6.66724 26.9486ZM37.5464 4.91393C37.7108 4.0922 38.4383 3.49569 39.2762 3.49569H53.7561C54.5942 3.49569 55.3217 4.0922 55.4859 4.91393L56.24 8.6845H36.7923L37.5464 4.91393ZM11.752 70.0147C11.752 70.072 11.7055 70.1186 11.6482 70.1186H6.66705C6.6098 70.1186 6.56323 70.072 6.56323 70.0147V62.2978C7.55982 62.9132 8.7329 63.2694 9.98771 63.2694H11.7519V70.0147H11.752ZM64.8843 60.1563H28.1484V56.7318C28.1484 56.6745 28.1949 56.6279 28.2522 56.6279H64.7806C64.8379 56.6279 64.8845 56.6745 64.8845 56.7318V60.1563H64.8843ZM86.4693 70.0147C86.4693 70.072 86.4227 70.1186 86.3654 70.1186H81.3843C81.327 70.1186 81.2804 70.072 81.2804 70.0147V63.2694H83.0446C84.2994 63.2694 85.4725 62.9132 86.4691 62.2978V70.0147H86.4693ZM85.3552 35.9604C86.0735 36.8586 86.4694 37.9867 86.4694 39.137V56.7318C86.4694 58.62 84.9332 60.1563 83.045 60.1563H67.9975V56.7318C67.9975 54.9578 66.5544 53.5148 64.7805 53.5148H28.2522C26.4783 53.5148 25.0352 54.9578 25.0352 56.7318V60.1563H9.98789C8.09961 60.1563 6.56341 58.62 6.56341 56.7318V39.137C6.56341 37.9867 6.95915 36.8586 7.67778 35.9604L12.3964 30.0618H56.4787C57.3383 30.0618 58.0353 29.3649 58.0353 28.5051C58.0353 27.6455 57.3384 26.9485 56.4787 26.9485H13.8708L18.5606 14.0516C19.0507 12.7033 20.3441 11.7975 21.7789 11.7975H71.2542C72.6889 11.7975 73.9821 12.7035 74.4724 14.0516L79.1622 26.9485H73.0828C72.2232 26.9485 71.5261 27.6453 71.5261 28.5051C71.5261 29.3647 72.223 30.0618 73.0828 30.0618H80.6367L85.3552 35.9604ZM84.6013 25.1845C84.6013 24.2116 85.3926 23.4203 86.3654 23.4203H88.0258C88.9986 23.4203 89.7899 24.2116 89.7899 25.1845C89.7899 26.1573 88.9986 26.9486 88.0258 26.9486H86.3654C85.3928 26.9486 84.6013 26.1572 84.6013 25.1845Z" fill="black"/>
<path d="M16.6294 50.194C14.8555 50.194 13.4124 51.6371 13.4124 53.411C13.4124 55.185 14.8555 56.628 16.6294 56.628C18.4034 56.628 19.8464 55.185 19.8464 53.411C19.8464 51.6371 18.4034 50.194 16.6294 50.194Z" fill="black"/>
<path d="M76.4034 50.194C74.6295 50.194 73.1864 51.6371 73.1864 53.411C73.1864 55.185 74.6295 56.628 76.4034 56.628C78.1774 56.628 79.6204 55.185 79.6204 53.411C79.6204 51.6371 78.1772 50.194 76.4034 50.194Z" fill="black"/>
<path d="M15.7992 36.9109C12.652 36.9109 10.0916 39.4713 10.0916 42.6185C10.0916 45.7658 12.652 48.3261 15.7992 48.3261C18.9464 48.3261 21.5068 45.7658 21.5068 42.6185C21.5068 39.4713 18.9464 36.9109 15.7992 36.9109ZM15.7992 45.2128C14.3686 45.2128 13.2048 44.0491 13.2048 42.6184C13.2048 41.1876 14.3685 40.0239 15.7992 40.0239C17.2299 40.0239 18.3936 41.1876 18.3936 42.6184C18.3936 44.0491 17.2298 45.2128 15.7992 45.2128Z" fill="black"/>
<path d="M77.2333 36.9109C74.0861 36.9109 71.5258 39.4713 71.5258 42.6185C71.5258 45.7658 74.0861 48.3261 77.2333 48.3261C80.3806 48.3261 82.9409 45.7658 82.9409 42.6185C82.9409 39.4713 80.3806 36.9109 77.2333 36.9109ZM77.2333 45.2128C75.8028 45.2128 74.6389 44.0491 74.6389 42.6184C74.6389 41.1876 75.8026 40.0239 77.2333 40.0239C78.6639 40.0239 79.8277 41.1876 79.8277 42.6184C79.8277 44.0491 78.6641 45.2128 77.2333 45.2128Z" fill="black"/>
</svg>
