<svg width="83" height="83" viewBox="0 0 83 83" fill="none" xmlns="http://www.w3.org/2000/svg">
<path d="M29.3507 61.5541C29.3304 61.4542 29.3007 61.3559 29.2617 61.2607C29.2227 61.1671 29.1743 61.0765 29.1181 60.9923C29.062 60.9064 28.9964 60.8269 28.9246 60.7551C28.8528 60.6833 28.7733 60.6177 28.6874 60.5615C28.6031 60.5054 28.5126 60.457 28.4174 60.418C28.3238 60.379 28.2255 60.3477 28.1256 60.329C27.9243 60.2884 27.7167 60.2884 27.517 60.329C27.4171 60.3477 27.3188 60.379 27.2236 60.418C27.1299 60.457 27.0394 60.5054 26.9551 60.5615C26.8693 60.6177 26.7897 60.6833 26.7179 60.7551C26.6461 60.8269 26.5806 60.9064 26.5244 60.9923C26.4667 61.0765 26.4199 61.1671 26.3808 61.2607C26.3418 61.3559 26.3106 61.4542 26.2919 61.5541C26.2716 61.654 26.2607 61.757 26.2607 61.8584C26.2607 61.9598 26.2716 62.0628 26.2919 62.1627C26.3106 62.2626 26.3418 62.3609 26.3808 62.4546C26.4199 62.5498 26.4667 62.6403 26.5244 62.7245C26.5806 62.8104 26.6461 62.89 26.7179 62.9618C26.7897 63.0335 26.8693 63.0991 26.9551 63.1553C27.0394 63.2116 27.1299 63.26 27.2236 63.299C27.3188 63.338 27.4171 63.3692 27.517 63.388C27.6168 63.4082 27.7198 63.4192 27.8213 63.4192C27.9227 63.4192 28.0257 63.4082 28.1256 63.388C28.2255 63.3692 28.3238 63.338 28.4174 63.299C28.5126 63.26 28.6031 63.2115 28.6874 63.1553C28.7733 63.0991 28.8528 63.0335 28.9246 62.9618C28.9964 62.89 29.062 62.8104 29.1181 62.7245C29.1743 62.6403 29.2227 62.5498 29.2617 62.4546C29.3007 62.3609 29.3304 62.2626 29.3507 62.1627C29.371 62.0628 29.3819 61.9598 29.3819 61.8584C29.3819 61.757 29.371 61.654 29.3507 61.5541Z" fill="#FFBC42"/>
<path d="M74.2092 62.0345C74.2031 62.0189 74.1969 62.0035 74.1903 61.9882C72.7539 58.6271 69.3852 57.3848 65.3985 58.7465L54.5261 61.7531C53.8975 59.8495 52.3295 58.2296 50.1125 57.4069C50.0988 57.4019 50.0851 57.3969 50.0712 57.3922L38.1199 53.3359C37.1252 52.0501 34.0093 48.76 28.1753 48.76C24.0982 48.76 20.4915 51.5569 18.428 54.6056H3.98309C3.12117 54.6056 2.42249 55.3042 2.42249 56.1662V75.8418C2.42249 76.7037 3.12117 77.4024 3.98309 77.4024H13.262C14.1239 77.4024 14.8226 76.7037 14.8226 75.8418V74.4944H19.174C20.0359 74.4944 20.7346 73.7957 20.7346 72.9338V72.4846C23.2712 72.7059 24.1055 73.1871 26.4352 74.5304C28.2268 75.5636 30.9346 77.1249 35.8108 79.3174C35.8335 79.3276 35.8564 79.3372 35.8794 79.3463C36.8153 79.7144 38.6447 80.2928 40.9003 80.2928C42.4703 80.2928 44.247 80.0124 46.0707 79.1857L70.1026 70.5812C70.1454 70.5659 70.1875 70.5487 70.2287 70.5297C72.5255 69.473 75.948 66.4949 74.2092 62.0345ZM11.7014 74.281H5.54369V57.7266H11.7014V74.281ZM17.6134 71.373H14.8226V57.7266H17.6134V71.373ZM68.9817 67.667L44.9605 76.2677C44.9394 76.2752 44.9109 76.2864 44.8901 76.2949C44.8691 76.3034 44.848 76.3125 44.8272 76.322C41.4818 77.8595 38.3017 76.9391 37.0554 76.4545C32.3452 74.335 29.8312 72.8854 27.9944 71.8262C25.4406 70.3536 24.2101 69.6439 20.7346 69.3569V56.7874C22.2139 54.3629 25.0826 51.8811 28.1754 51.8811C33.4793 51.8811 35.7267 55.3308 35.8151 55.47C36.0056 55.7799 36.2985 56.0135 36.643 56.1304L49.0459 60.34C51.0267 61.0835 52.0736 62.7799 51.5925 64.4716C51.3704 65.2528 50.8573 65.9008 50.1478 66.2961C49.4444 66.6879 48.6314 66.7848 47.8564 66.5704L33.8744 62.1395C33.0523 61.8791 32.1756 62.3341 31.9153 63.1558C31.6548 63.9775 32.1099 64.8545 32.9315 65.115L46.9378 69.5535C46.9526 69.5582 46.9674 69.5627 46.9824 69.5669C47.5416 69.726 48.1109 69.8046 48.6768 69.8046C49.7127 69.8046 50.7372 69.5407 51.6671 69.0226C53.1048 68.2215 54.1445 66.9084 54.5946 65.3252C54.6305 65.1988 54.6623 65.0724 54.6899 64.946L66.4074 61.6999C68.0998 61.1219 70.3213 60.9135 71.3104 63.1915C72.3341 65.866 69.6733 67.3371 68.9817 67.667Z" fill="#FFBC42"/>
<path d="M58.4576 20.922C58.4373 20.8221 58.4076 20.7238 58.3671 20.6286C58.3281 20.535 58.2812 20.4445 58.2235 20.3602C58.1673 20.2744 58.1018 20.1948 58.03 20.123C57.9582 20.0512 57.8786 19.9856 57.7928 19.9295C57.7085 19.8733 57.618 19.8249 57.5243 19.7859C57.4291 19.7469 57.3308 19.7157 57.2325 19.6969C57.0312 19.6564 56.8236 19.6564 56.6223 19.6969C56.5224 19.7157 56.4241 19.7469 56.3305 19.7859C56.2353 19.8249 56.1448 19.8733 56.0605 19.9295C55.9747 19.9856 55.8951 20.0512 55.8233 20.123C55.7515 20.1948 55.686 20.2744 55.6298 20.3602C55.5736 20.4445 55.5252 20.535 55.4862 20.6286C55.4472 20.7238 55.416 20.8221 55.3972 20.922C55.377 21.0219 55.366 21.1249 55.366 21.2263C55.366 21.3278 55.377 21.4308 55.3972 21.5306C55.416 21.6305 55.4472 21.7288 55.4862 21.8225C55.5252 21.9177 55.5736 22.0082 55.6298 22.0925C55.686 22.1783 55.7515 22.2579 55.8233 22.3297C55.8951 22.4015 55.9747 22.467 56.0605 22.5232C56.1448 22.5794 56.2353 22.6278 56.3305 22.6668C56.4241 22.7058 56.5224 22.7354 56.6223 22.7557C56.7222 22.776 56.8252 22.7869 56.9266 22.7869C57.0281 22.7869 57.1311 22.776 57.2325 22.7557C57.3308 22.7354 57.4291 22.7058 57.5243 22.6668C57.618 22.6278 57.7085 22.5794 57.7928 22.5232C57.8786 22.467 57.9582 22.4015 58.03 22.3297C58.1018 22.2579 58.1673 22.1783 58.2235 22.0925C58.2812 22.0082 58.3281 21.9177 58.3671 21.8225C58.4076 21.7288 58.4373 21.6305 58.4576 21.5306C58.4779 21.4308 58.4872 21.3278 58.4872 21.2263C58.4872 21.1249 58.4779 21.0219 58.4576 20.922Z" fill="#FFBC42"/>
<path d="M80.7649 5.68263H71.486C70.6241 5.68263 69.9254 6.38132 69.9254 7.24324V8.59066H65.574C64.712 8.59066 64.0134 9.28935 64.0134 10.1513V10.6004C61.4768 10.379 60.6425 9.89798 58.3129 8.55461C56.5214 7.52149 53.8136 5.96011 48.9371 3.76762C48.9145 3.75732 48.8917 3.7478 48.8685 3.73874C47.2812 3.11419 43.1211 1.88537 38.6779 3.89902L32.398 6.14754L27.1046 0.854279C26.4952 0.244863 25.507 0.244863 24.8976 0.854279L7.51901 18.2327C6.95688 18.795 6.84904 19.7699 7.51901 20.4399L37.2153 50.1361C37.6905 50.6115 38.8032 50.7552 39.4224 50.1361L55.2883 34.2704C55.7008 34.306 56.1289 34.3252 56.5726 34.3252C60.6498 34.3252 64.2563 31.5283 66.3196 28.4798H80.7649C81.6268 28.4798 82.3255 27.7811 82.3255 26.9192V7.24324C82.3255 6.38132 81.6268 5.68263 80.7649 5.68263ZM26.0009 4.16479L29.5579 7.72172C28.5006 8.37561 27.2781 8.7255 26.0009 8.7255C24.7236 8.7255 23.5013 8.37577 22.444 7.72172L26.0009 4.16479ZM14.3866 22.8933L10.8297 19.3362L14.3866 15.7793C15.0405 16.8366 15.3904 18.059 15.3904 19.3362C15.3904 20.6134 15.0407 21.8358 14.3866 22.8933ZM38.3189 46.8255L34.7626 43.2692C36.9339 41.9292 39.7037 41.9292 41.8751 43.2692L38.3189 46.8255ZM44.1236 41.021C40.675 38.5193 35.9629 38.5193 32.5143 41.021L16.635 25.1415C17.8536 23.4654 18.5116 21.4521 18.5116 19.3362C18.5116 17.2202 17.8538 15.207 16.635 13.5309L20.1958 9.97024C21.8719 11.1889 23.8851 11.8469 26.0011 11.8469C28.1171 11.8469 30.1303 11.1889 31.8064 9.97024L35.1818 13.3457C34.4535 13.4532 33.7432 13.6932 33.0809 14.0623C31.9623 14.6856 31.0846 15.619 30.5381 16.7483C28.7777 17.0743 27.148 17.9265 25.8695 19.2048C22.4011 22.6734 22.4011 28.317 25.8697 31.7856C27.6038 33.5198 29.8818 34.387 32.16 34.387C34.438 34.387 36.7162 33.5199 38.4505 31.7856C39.5788 30.6573 40.3693 29.2705 40.7652 27.7593L46.0344 29.5476C45.4412 32.2955 46.0488 35.1863 47.6876 37.457L44.1236 41.021ZM34.6354 25.6782C34.6492 25.6832 34.6629 25.6882 34.6768 25.6929L37.7974 26.752C37.5617 27.8156 37.0285 28.7935 36.2435 29.5786C33.9919 31.8299 30.3282 31.8302 28.0769 29.5786C25.8252 27.3271 25.8252 23.6636 28.0769 21.412C28.6199 20.8686 29.2609 20.4439 29.9593 20.156C30.2473 22.5534 31.9735 24.6903 34.6354 25.6782ZM49.9362 35.2082C49.3338 34.2266 48.993 33.1062 48.9392 31.9627C49.6867 32.5032 50.6003 33.0327 51.6915 33.453L49.9362 35.2082ZM64.0132 26.297C62.5341 28.7218 59.6654 31.2037 56.5726 31.2037C55.9939 31.2037 55.4516 31.1625 54.9445 31.0891C54.9425 31.0888 54.9405 31.0885 54.9384 31.0882C51.5682 30.5986 49.7552 28.6831 49.1577 27.9247C49.1258 27.8779 48.9902 27.7004 48.9701 27.6709C48.7883 27.346 48.4902 27.0848 48.11 26.9557L35.702 22.7444C33.7219 22.0012 32.6752 20.3057 33.1549 18.6146C33.1552 18.6135 33.1555 18.6124 33.1558 18.6113C33.1563 18.6101 33.1566 18.6087 33.1569 18.6074C33.3799 17.8287 33.8921 17.1827 34.6 16.7884C35.3032 16.3965 36.1162 16.2993 36.8915 16.5142L50.8734 20.9449C51.6952 21.2057 52.5723 20.7503 52.8326 19.9286C53.0929 19.107 52.638 18.2299 51.8163 17.9694L40.6962 14.4456L40.5991 14.3485C40.5982 14.3476 40.5973 14.3465 40.5962 14.3455L34.8391 8.58848L39.7875 6.81657C39.8042 6.81048 39.8248 6.80283 39.8413 6.79612C39.8455 6.79441 39.8536 6.79129 39.8577 6.78957C39.8789 6.78099 39.8998 6.77193 39.9206 6.76241C43.2659 5.22491 46.4458 6.1452 47.6922 6.62992C52.4026 8.74938 54.9168 10.199 56.7536 11.2582C59.3074 12.7309 60.5379 13.4406 64.0132 13.7275V26.297ZM69.9254 25.3583H67.1346V11.7119H69.9254V25.3583ZM79.2043 25.3583H73.0466V8.80384H79.2043V25.3583Z" fill="#FFBC42"/>
<path d="M27.3507 63.5541C27.3304 63.4542 27.3007 63.3559 27.2617 63.2607C27.2227 63.1671 27.1743 63.0765 27.1181 62.9923C27.062 62.9064 26.9964 62.8269 26.9246 62.7551C26.8528 62.6833 26.7733 62.6177 26.6874 62.5615C26.6031 62.5054 26.5126 62.457 26.4174 62.418C26.3238 62.379 26.2255 62.3477 26.1256 62.329C25.9243 62.2884 25.7167 62.2884 25.517 62.329C25.4171 62.3477 25.3188 62.379 25.2236 62.418C25.1299 62.457 25.0394 62.5054 24.9551 62.5615C24.8693 62.6177 24.7897 62.6833 24.7179 62.7551C24.6461 62.8269 24.5806 62.9064 24.5244 62.9923C24.4667 63.0765 24.4199 63.1671 24.3808 63.2607C24.3418 63.3559 24.3106 63.4542 24.2919 63.5541C24.2716 63.654 24.2607 63.757 24.2607 63.8584C24.2607 63.9598 24.2716 64.0628 24.2919 64.1627C24.3106 64.2626 24.3418 64.3609 24.3808 64.4546C24.4199 64.5498 24.4667 64.6403 24.5244 64.7245C24.5806 64.8104 24.6461 64.89 24.7179 64.9618C24.7897 65.0335 24.8693 65.0991 24.9551 65.1553C25.0394 65.2116 25.1299 65.26 25.2236 65.299C25.3188 65.338 25.4171 65.3692 25.517 65.388C25.6168 65.4082 25.7198 65.4192 25.8213 65.4192C25.9227 65.4192 26.0257 65.4082 26.1256 65.388C26.2255 65.3692 26.3238 65.338 26.4174 65.299C26.5126 65.26 26.6031 65.2115 26.6874 65.1553C26.7733 65.0991 26.8528 65.0335 26.9246 64.9618C26.9964 64.89 27.062 64.8104 27.1181 64.7245C27.1743 64.6403 27.2227 64.5498 27.2617 64.4546C27.3007 64.3609 27.3304 64.2626 27.3507 64.1627C27.371 64.0628 27.3819 63.9598 27.3819 63.8584C27.3819 63.757 27.371 63.654 27.3507 63.5541Z" fill="black"/>
<path d="M72.2092 64.0345C72.2031 64.0189 72.1969 64.0035 72.1903 63.9882C70.7539 60.6271 67.3852 59.3848 63.3985 60.7465L52.5261 63.7531C51.8975 61.8495 50.3295 60.2296 48.1125 59.4069C48.0988 59.4019 48.0851 59.3969 48.0712 59.3922L36.1199 55.3359C35.1252 54.0501 32.0093 50.76 26.1753 50.76C22.0982 50.76 18.4915 53.5569 16.428 56.6056H1.98309C1.12117 56.6056 0.422485 57.3042 0.422485 58.1662V77.8418C0.422485 78.7037 1.12117 79.4024 1.98309 79.4024H11.262C12.1239 79.4024 12.8226 78.7037 12.8226 77.8418V76.4944H17.174C18.0359 76.4944 18.7346 75.7957 18.7346 74.9338V74.4846C21.2712 74.7059 22.1055 75.1871 24.4352 76.5304C26.2268 77.5636 28.9346 79.1249 33.8108 81.3174C33.8335 81.3276 33.8564 81.3372 33.8794 81.3463C34.8153 81.7144 36.6447 82.2928 38.9003 82.2928C40.4703 82.2928 42.247 82.0124 44.0707 81.1857L68.1026 72.5812C68.1454 72.5659 68.1875 72.5487 68.2287 72.5297C70.5255 71.473 73.948 68.4949 72.2092 64.0345ZM9.70137 76.281H3.54369V59.7266H9.70137V76.281ZM15.6134 73.373H12.8226V59.7266H15.6134V73.373ZM66.9817 69.667L42.9605 78.2677C42.9394 78.2752 42.9109 78.2864 42.8901 78.2949C42.8691 78.3034 42.848 78.3125 42.8272 78.322C39.4818 79.8595 36.3017 78.9391 35.0554 78.4545C30.3452 76.335 27.8312 74.8854 25.9944 73.8262C23.4406 72.3536 22.2101 71.6439 18.7346 71.3569V58.7874C20.2139 56.3629 23.0826 53.8811 26.1754 53.8811C31.4793 53.8811 33.7267 57.3308 33.8151 57.47C34.0056 57.7799 34.2985 58.0135 34.643 58.1304L47.0459 62.34C49.0267 63.0835 50.0736 64.7799 49.5925 66.4716C49.3704 67.2528 48.8573 67.9008 48.1478 68.2961C47.4444 68.6879 46.6314 68.7848 45.8564 68.5704L31.8744 64.1395C31.0523 63.8791 30.1756 64.3341 29.9153 65.1558C29.6548 65.9775 30.1099 66.8545 30.9315 67.115L44.9378 71.5535C44.9526 71.5582 44.9674 71.5627 44.9824 71.5669C45.5416 71.726 46.1109 71.8046 46.6768 71.8046C47.7127 71.8046 48.7372 71.5407 49.6671 71.0226C51.1048 70.2215 52.1445 68.9084 52.5946 67.3252C52.6305 67.1988 52.6623 67.0724 52.6899 66.946L64.4074 63.6999C66.0998 63.1219 68.3213 62.9135 69.3104 65.1915C70.3341 67.866 67.6733 69.3371 66.9817 69.667Z" fill="black"/>
<path d="M56.4576 22.922C56.4373 22.8221 56.4076 22.7238 56.3671 22.6286C56.3281 22.535 56.2812 22.4445 56.2235 22.3602C56.1673 22.2744 56.1018 22.1948 56.03 22.123C55.9582 22.0512 55.8786 21.9856 55.7928 21.9295C55.7085 21.8733 55.618 21.8249 55.5243 21.7859C55.4291 21.7469 55.3308 21.7157 55.2325 21.6969C55.0312 21.6564 54.8236 21.6564 54.6223 21.6969C54.5224 21.7157 54.4241 21.7469 54.3305 21.7859C54.2353 21.8249 54.1448 21.8733 54.0605 21.9295C53.9747 21.9856 53.8951 22.0512 53.8233 22.123C53.7515 22.1948 53.686 22.2744 53.6298 22.3602C53.5736 22.4445 53.5252 22.535 53.4862 22.6286C53.4472 22.7238 53.416 22.8221 53.3972 22.922C53.377 23.0219 53.366 23.1249 53.366 23.2263C53.366 23.3278 53.377 23.4308 53.3972 23.5306C53.416 23.6305 53.4472 23.7288 53.4862 23.8225C53.5252 23.9177 53.5736 24.0082 53.6298 24.0925C53.686 24.1783 53.7515 24.2579 53.8233 24.3297C53.8951 24.4015 53.9747 24.467 54.0605 24.5232C54.1448 24.5794 54.2353 24.6278 54.3305 24.6668C54.4241 24.7058 54.5224 24.7354 54.6223 24.7557C54.7222 24.776 54.8252 24.7869 54.9266 24.7869C55.0281 24.7869 55.1311 24.776 55.2325 24.7557C55.3308 24.7354 55.4291 24.7058 55.5243 24.6668C55.618 24.6278 55.7085 24.5794 55.7928 24.5232C55.8786 24.467 55.9582 24.4015 56.03 24.3297C56.1018 24.2579 56.1673 24.1783 56.2235 24.0925C56.2812 24.0082 56.3281 23.9177 56.3671 23.8225C56.4076 23.7288 56.4373 23.6305 56.4576 23.5306C56.4779 23.4308 56.4872 23.3278 56.4872 23.2263C56.4872 23.1249 56.4779 23.0219 56.4576 22.922Z" fill="black"/>
<path d="M78.7649 7.68263H69.486C68.6241 7.68263 67.9254 8.38132 67.9254 9.24324V10.5907H63.574C62.712 10.5907 62.0134 11.2893 62.0134 12.1513V12.6004C59.4768 12.379 58.6425 11.898 56.3129 10.5546C54.5214 9.52149 51.8136 7.96011 46.9371 5.76762C46.9145 5.75732 46.8917 5.7478 46.8685 5.73874C45.2812 5.11419 41.1211 3.88537 36.6779 5.89902L30.398 8.14754L25.1046 2.85428C24.4952 2.24486 23.507 2.24486 22.8976 2.85428L5.51901 20.2327C4.95688 20.795 4.84904 21.7699 5.51901 22.4399L35.2153 52.1361C35.6905 52.6115 36.8032 52.7552 37.4224 52.1361L53.2883 36.2704C53.7008 36.306 54.1289 36.3252 54.5726 36.3252C58.6498 36.3252 62.2563 33.5283 64.3196 30.4798H78.7649C79.6268 30.4798 80.3255 29.7811 80.3255 28.9192V9.24324C80.3255 8.38132 79.6268 7.68263 78.7649 7.68263ZM24.0009 6.16479L27.5579 9.72172C26.5006 10.3756 25.2781 10.7255 24.0009 10.7255C22.7236 10.7255 21.5013 10.3758 20.444 9.72172L24.0009 6.16479ZM12.3866 24.8933L8.82968 21.3362L12.3866 17.7793C13.0405 18.8366 13.3904 20.059 13.3904 21.3362C13.3904 22.6134 13.0407 23.8358 12.3866 24.8933ZM36.3189 48.8255L32.7626 45.2692C34.9339 43.9292 37.7037 43.9292 39.8751 45.2692L36.3189 48.8255ZM42.1236 43.021C38.675 40.5193 33.9629 40.5193 30.5143 43.021L14.635 27.1415C15.8536 25.4654 16.5116 23.4521 16.5116 21.3362C16.5116 19.2202 15.8538 17.207 14.635 15.5309L18.1958 11.9702C19.8719 13.1889 21.8851 13.8469 24.0011 13.8469C26.1171 13.8469 28.1303 13.1889 29.8064 11.9702L33.1818 15.3457C32.4535 15.4532 31.7432 15.6932 31.0809 16.0623C29.9623 16.6856 29.0846 17.619 28.5381 18.7483C26.7777 19.0743 25.148 19.9265 23.8695 21.2048C20.4011 24.6734 20.4011 30.317 23.8697 33.7856C25.6038 35.5198 27.8818 36.387 30.16 36.387C32.438 36.387 34.7162 35.5199 36.4505 33.7856C37.5788 32.6573 38.3693 31.2705 38.7652 29.7593L44.0344 31.5476C43.4412 34.2955 44.0488 37.1863 45.6876 39.457L42.1236 43.021ZM32.6354 27.6782C32.6492 27.6832 32.6629 27.6882 32.6768 27.6929L35.7974 28.752C35.5617 29.8156 35.0285 30.7935 34.2435 31.5786C31.9919 33.8299 28.3282 33.8302 26.0769 31.5786C23.8252 29.3271 23.8252 25.6636 26.0769 23.412C26.6199 22.8686 27.2609 22.4439 27.9593 22.156C28.2473 24.5534 29.9735 26.6903 32.6354 27.6782ZM47.9362 37.2082C47.3338 36.2266 46.993 35.1062 46.9392 33.9627C47.6867 34.5032 48.6003 35.0327 49.6915 35.453L47.9362 37.2082ZM62.0132 28.297C60.5341 30.7218 57.6654 33.2037 54.5726 33.2037C53.9939 33.2037 53.4516 33.1625 52.9445 33.0891C52.9425 33.0888 52.9405 33.0885 52.9384 33.0882C49.5682 32.5986 47.7552 30.6831 47.1577 29.9247C47.1258 29.8779 46.9902 29.7004 46.9701 29.6709C46.7883 29.346 46.4902 29.0848 46.11 28.9557L33.702 24.7444C31.7219 24.0012 30.6752 22.3057 31.1549 20.6146C31.1552 20.6135 31.1555 20.6124 31.1558 20.6113C31.1563 20.6101 31.1566 20.6087 31.1569 20.6074C31.3799 19.8287 31.8921 19.1827 32.6 18.7884C33.3032 18.3965 34.1162 18.2993 34.8915 18.5142L48.8734 22.9449C49.6952 23.2057 50.5723 22.7503 50.8326 21.9286C51.0929 21.107 50.638 20.2299 49.8163 19.9694L38.6962 16.4456L38.5991 16.3485C38.5982 16.3476 38.5973 16.3465 38.5962 16.3455L32.8391 10.5885L37.7875 8.81657C37.8042 8.81048 37.8248 8.80283 37.8413 8.79612C37.8455 8.79441 37.8536 8.79129 37.8577 8.78957C37.8789 8.78099 37.8998 8.77193 37.9206 8.76241C41.2659 7.22491 44.4458 8.1452 45.6922 8.62992C50.4026 10.7494 52.9168 12.199 54.7536 13.2582C57.3074 14.7309 58.5379 15.4406 62.0132 15.7275V28.297ZM67.9254 27.3583H65.1346V13.7119H67.9254V27.3583ZM77.2043 27.3583H71.0466V10.8038H77.2043V27.3583Z" fill="black"/>
</svg>
