<svg width="83" height="82" viewBox="0 0 83 82" fill="none" xmlns="http://www.w3.org/2000/svg">
<path d="M81.1456 50.6161C80.2127 47.3532 77.5684 44.9126 74.2424 44.2489L67.0132 42.8031V42.4654C69.3972 41.0815 71.1729 38.7722 71.8533 36.03C74.2308 35.5712 76.0336 33.4824 76.0336 30.9734V22.1114C76.0336 18.5574 73.7334 15.4531 70.3817 14.3951C68.5054 11.8565 65.5441 10.3552 62.3677 10.3552C59.8535 10.3552 57.4863 10.9918 55.4155 12.1103V5.20068H45.1064V0.0461426H12.8905V5.20068H2.58142V79.9415H55.4155V63.7228L61.8586 70.1659L71.4783 60.5463C72.5195 59.5051 73.1535 58.1778 73.361 56.7461H82.8969L81.1456 50.6161ZM69.5905 33.5507C69.5905 37.8148 66.1227 41.2825 61.8586 41.2825C57.5945 41.2825 54.1268 37.8148 54.1268 33.5507V28.3098C56.4747 28.0276 58.6487 26.9838 60.3484 25.2854L60.6911 24.9426L60.8277 25.0457C63.3638 26.9477 66.4346 28.0959 69.5905 28.3433V33.5507ZM72.1677 33.1924V28.7556C72.9345 29.2028 73.4564 30.025 73.4564 30.9747C73.4564 31.9244 72.9345 32.7453 72.1677 33.1924ZM62.3677 12.9325C64.8444 12.9325 67.1446 14.1631 68.5183 16.225L68.7941 16.6399L69.2786 16.761C71.7386 17.3757 73.4564 19.5754 73.4564 22.1114V26.5353C72.6948 26.092 71.8224 25.8189 70.8791 25.8189C67.8328 25.8189 64.8122 24.8124 62.3741 22.9839L60.4489 21.5393L58.5262 23.4619C57.0056 24.9825 54.9864 25.8189 52.8382 25.8189C51.8949 25.8189 51.0225 26.092 50.2609 26.5353V25.0379C50.2609 18.3628 55.6925 12.9325 62.3677 12.9325ZM51.5496 28.7544V33.1924C50.7828 32.7453 50.2609 31.9231 50.2609 30.9734C50.2609 30.0237 50.7828 29.2015 51.5496 28.7544ZM14.1791 12.9325H37.3746V10.3552H15.4678V2.62341H42.5291V10.3552H39.9518V12.9325H43.8177H45.1064H47.6837V15.5098H50.2609V10.3552H45.1064V7.77795H52.8382V13.8887C49.6888 16.5832 47.6837 20.578 47.6837 25.0379V30.9734C47.6837 33.4824 49.4865 35.5712 51.864 36.03C52.5444 38.7722 54.3201 41.0815 56.7041 42.4654V42.8031L50.2609 44.0917V38.7052H47.6837V44.8262C45.2237 45.8816 43.3281 47.9679 42.5716 50.6161L40.8204 56.7461H47.6837V72.2097H10.3132V12.9325H12.8905H14.1791V12.9325ZM52.8382 77.3643H5.15869V7.77795H12.8905V10.3552H7.73596V74.787H50.2609V56.7461H50.3563C50.5638 58.1778 51.1978 59.5051 52.239 60.5463L52.8382 61.1455V77.3643ZM69.6562 58.7242L61.8586 66.5217L54.0611 58.7242C53.2725 57.9355 52.8382 56.8853 52.8382 55.7693C52.8382 53.4652 54.7119 51.5916 57.016 51.5916C58.1319 51.5916 59.1821 52.0258 59.9708 52.8145L61.8586 54.7023L63.7465 52.8145C64.5351 52.0258 65.5854 51.5916 66.7013 51.5916C69.0054 51.5916 70.8791 53.4652 70.8791 55.7693C70.8791 56.8853 70.4448 57.9355 69.6562 58.7242ZM73.2437 54.1688C72.5208 51.2179 69.8714 49.0143 66.7013 49.0143C64.8972 49.0143 63.2001 49.7166 61.9244 50.9923L61.8586 51.0581L61.7929 50.9923C60.5172 49.7166 58.8213 49.0143 57.016 49.0143C53.8446 49.0143 51.1965 51.2179 50.4736 54.1688H44.2378L45.051 51.3235C45.7172 48.9937 47.605 47.2514 49.9813 46.7759L59.2814 44.9164V43.5195C60.1074 43.7347 60.9669 43.8597 61.8586 43.8597C62.7504 43.8597 63.6099 43.7348 64.4359 43.5208V44.9177L73.736 46.7759C76.1122 47.2514 78.0014 48.995 78.6663 51.3235L79.4794 54.1688H73.2437Z" fill="#FFBC42"/>
<path d="M25.7769 19.376V15.5101H18.045V19.376H14.1791V27.1079H18.045V30.9738H25.7769V27.1079H29.6428V19.376H25.7769ZM27.0655 24.5306H23.1996V28.3965H20.6223V24.5306H16.7564V21.9533H20.6223V18.0874H23.1996V21.9533H27.0655V24.5306Z" fill="#FFBC42"/>
<path d="M43.8177 19.3757H33.5086V21.953H43.8177V19.3757Z" fill="#FFBC42"/>
<path d="M43.8177 24.5305H33.5086V27.1078H43.8177V24.5305Z" fill="#FFBC42"/>
<path d="M24.4882 37.417H16.7563H15.4677V39.9943H16.7563H24.4882H25.7768V37.417H24.4882Z" fill="#FFBC42"/>
<path d="M24.4882 42.571H16.7563H15.4677V45.1483H16.7563H24.4882H25.7768V42.571H24.4882Z" fill="#FFBC42"/>
<path d="M38.6632 37.417H30.9314V39.9943H38.6632V37.417Z" fill="#FFBC42"/>
<path d="M38.6632 42.571H30.9314V45.1483H38.6632V42.571Z" fill="#FFBC42"/>
<path d="M24.4882 58.0345H16.7563H15.4677V60.6118H16.7563H24.4882H25.7768V58.0345H24.4882Z" fill="#FFBC42"/>
<path d="M38.6632 58.0345H30.9314V60.6118H38.6632V58.0345Z" fill="#FFBC42"/>
<path d="M38.6631 47.7258H15.4677V50.3031H38.6631V47.7258Z" fill="#FFBC42"/>
<path d="M38.6631 52.8806H15.4677V55.4579H38.6631V52.8806Z" fill="#FFBC42"/>
<path d="M38.6631 63.1896H15.4677V65.7668H38.6631V63.1896Z" fill="#FFBC42"/>
<path d="M37.3746 5.20044H34.7973V7.77771H37.3746V5.20044Z" fill="#FFBC42"/>
<path d="M23.1996 5.20044H20.6223V7.77771H23.1996V5.20044Z" fill="#FFBC42"/>
<path d="M79.1456 52.6161C78.2127 49.3532 75.5684 46.9126 72.2424 46.2489L65.0132 44.8031V44.4654C67.3972 43.0815 69.1729 40.7722 69.8533 38.03C72.2308 37.5712 74.0336 35.4824 74.0336 32.9734V24.1114C74.0336 20.5574 71.7334 17.4531 68.3817 16.3951C66.5054 13.8565 63.5441 12.3552 60.3677 12.3552C57.8535 12.3552 55.4863 12.9918 53.4155 14.1103V7.20068H43.1064V2.04614H10.8905V7.20068H0.581421V81.9415H53.4155V65.7228L59.8586 72.1659L69.4783 62.5463C70.5195 61.5051 71.1535 60.1778 71.361 58.7461H80.8969L79.1456 52.6161ZM67.5905 35.5507C67.5905 39.8148 64.1227 43.2825 59.8586 43.2825C55.5945 43.2825 52.1268 39.8148 52.1268 35.5507V30.3098C54.4747 30.0276 56.6487 28.9838 58.3484 27.2854L58.6911 26.9426L58.8277 27.0457C61.3638 28.9477 64.4346 30.0959 67.5905 30.3433V35.5507ZM70.1677 35.1924V30.7556C70.9345 31.2028 71.4564 32.025 71.4564 32.9747C71.4564 33.9244 70.9345 34.7453 70.1677 35.1924ZM60.3677 14.9325C62.8444 14.9325 65.1446 16.1631 66.5183 18.225L66.7941 18.6399L67.2786 18.761C69.7386 19.3757 71.4564 21.5754 71.4564 24.1114V28.5353C70.6948 28.092 69.8224 27.8188 68.8791 27.8188C65.8328 27.8188 62.8122 26.8124 60.3741 24.9839L58.4489 23.5393L56.5262 25.4619C55.0056 26.9825 52.9864 27.8188 50.8382 27.8188C49.8949 27.8188 49.0225 28.092 48.2609 28.5353V27.0379C48.2609 20.3628 53.6925 14.9325 60.3677 14.9325ZM49.5496 30.7544V35.1924C48.7828 34.7453 48.2609 33.9231 48.2609 32.9734C48.2609 32.0237 48.7828 31.2015 49.5496 30.7544ZM12.1791 14.9325H35.3746V12.3552H13.4678V4.62341H40.5291V12.3552H37.9518V14.9325H41.8177H43.1064H45.6837V17.5098H48.2609V12.3552H43.1064V9.77796H50.8382V15.8887C47.6888 18.5832 45.6837 22.578 45.6837 27.0379V32.9734C45.6837 35.4824 47.4865 37.5712 49.864 38.03C50.5444 40.7722 52.3201 43.0815 54.7041 44.4654V44.8031L48.2609 46.0917V40.7052H45.6837V46.8262C43.2237 47.8816 41.3281 49.9679 40.5716 52.6161L38.8204 58.7461H45.6837V74.2097H8.31323V14.9325H10.8905H12.1791ZM50.8382 79.3643H3.15869V9.77796H10.8905V12.3552H5.73596V76.787H48.2609V58.7461H48.3563C48.5638 60.1778 49.1978 61.5051 50.239 62.5463L50.8382 63.1455V79.3643ZM67.6562 60.7242L59.8586 68.5217L52.0611 60.7242C51.2725 59.9355 50.8382 58.8853 50.8382 57.7693C50.8382 55.4652 52.7119 53.5916 55.016 53.5916C56.1319 53.5916 57.1821 54.0258 57.9708 54.8145L59.8586 56.7023L61.7465 54.8145C62.5351 54.0258 63.5854 53.5916 64.7013 53.5916C67.0054 53.5916 68.8791 55.4652 68.8791 57.7693C68.8791 58.8853 68.4448 59.9355 67.6562 60.7242ZM71.2437 56.1688C70.5208 53.2179 67.8714 51.0143 64.7013 51.0143C62.8972 51.0143 61.2001 51.7166 59.9244 52.9923L59.8586 53.0581L59.7929 52.9923C58.5172 51.7166 56.8213 51.0143 55.016 51.0143C51.8446 51.0143 49.1965 53.2179 48.4736 56.1688H42.2378L43.051 53.3235C43.7172 50.9937 45.605 49.2514 47.9813 48.7759L57.2814 46.9164V45.5195C58.1074 45.7347 58.9669 45.8597 59.8586 45.8597C60.7504 45.8597 61.6099 45.7348 62.4359 45.5208V46.9177L71.736 48.7759C74.1122 49.2514 76.0014 50.995 76.6663 53.3235L77.4794 56.1688H71.2437Z" fill="black"/>
<path d="M23.7769 21.376V17.5101H16.045V21.376H12.1791V29.1079H16.045V32.9738H23.7769V29.1079H27.6428V21.376H23.7769ZM25.0655 26.5306H21.1996V30.3965H18.6223V26.5306H14.7564V23.9533H18.6223V20.0874H21.1996V23.9533H25.0655V26.5306Z" fill="black"/>
<path d="M41.8177 21.3757H31.5086V23.953H41.8177V21.3757Z" fill="black"/>
<path d="M41.8177 26.5305H31.5086V29.1078H41.8177V26.5305Z" fill="black"/>
<path d="M22.4882 39.417H14.7563H13.4677V41.9943H14.7563H22.4882H23.7768V39.417H22.4882Z" fill="black"/>
<path d="M22.4882 44.571H14.7563H13.4677V47.1483H14.7563H22.4882H23.7768V44.571H22.4882Z" fill="black"/>
<path d="M36.6632 39.417H28.9314V41.9943H36.6632V39.417Z" fill="black"/>
<path d="M36.6632 44.571H28.9314V47.1483H36.6632V44.571Z" fill="black"/>
<path d="M22.4882 60.0345H14.7563H13.4677V62.6118H14.7563H22.4882H23.7768V60.0345H22.4882Z" fill="black"/>
<path d="M36.6632 60.0345H28.9314V62.6118H36.6632V60.0345Z" fill="black"/>
<path d="M36.6631 49.7258H13.4677V52.3031H36.6631V49.7258Z" fill="black"/>
<path d="M36.6631 54.8806H13.4677V57.4579H36.6631V54.8806Z" fill="black"/>
<path d="M36.6631 65.1896H13.4677V67.7668H36.6631V65.1896Z" fill="black"/>
<path d="M35.3746 7.20044H32.7973V9.77771H35.3746V7.20044Z" fill="black"/>
<path d="M21.1996 7.20044H18.6223V9.77771H21.1996V7.20044Z" fill="black"/>
</svg>
