<svg width="31" height="31" viewBox="0 0 31 31" fill="none" xmlns="http://www.w3.org/2000/svg">
<path d="M22.9446 16.28C22.1371 16.28 21.48 16.9371 21.48 17.7446C21.48 18.552 22.1371 19.2091 22.9446 19.2091C23.752 19.2091 24.4091 18.552 24.4091 17.7446C24.4091 16.9371 23.752 16.28 22.9446 16.28ZM22.9446 18.2328C22.6756 18.2328 22.4564 18.0141 22.4564 17.7446C22.4564 17.4751 22.6756 17.2564 22.9446 17.2564C23.2136 17.2564 23.4328 17.4751 23.4328 17.7446C23.4328 18.0141 23.2136 18.2328 22.9446 18.2328Z" fill="black"/>
<path d="M7.32277 16.28C6.51531 16.28 5.85822 16.9371 5.85822 17.7446C5.85822 18.552 6.51531 19.2091 7.32277 19.2091C8.13022 19.2091 8.78731 18.552 8.78731 17.7446C8.78731 16.9371 8.13022 16.28 7.32277 16.28ZM7.32277 18.2328C7.05378 18.2328 6.83458 18.0141 6.83458 17.7446C6.83458 17.4751 7.05378 17.2564 7.32277 17.2564C7.59175 17.2564 7.81095 17.4751 7.81095 17.7446C7.81095 18.0141 7.59175 18.2328 7.32277 18.2328Z" fill="black"/>
<path d="M26.0274 19.2093L30.2673 19.2093L30.2673 15.5148C30.2673 14.3007 29.3969 13.2862 28.1979 13.1022L26.9931 12.9167L28.0285 11.8866L29.7791 11.8866V10.9102L27.6243 10.9102L26.0211 12.5129L25.8009 12.7272C24.3037 12.4651 22.8513 11.889 21.5874 11.0464C20.0174 9.99928 18.1897 9.44568 16.3019 9.44568C14.4863 9.44568 12.7171 9.9612 11.1862 10.9356L10.3846 11.4458C8.92689 12.3728 7.24413 12.863 5.51694 12.863C4.36044 12.863 3.25129 13.2184 2.31056 13.8906C0.863587 14.9241 -7.62939e-06 16.6019 -7.62939e-06 18.3799L-7.62939e-06 19.2093L4.23986 19.2093C4.53081 19.8191 4.99556 20.3282 5.57162 20.6739L1.95272 20.6739L1.95272 21.6502L28.3146 21.6502L28.3146 20.6739L24.6957 20.6739C25.2717 20.3282 25.7365 19.8191 26.0274 19.2093ZM3.94451 18.233L0.978798 18.233C1.02469 16.8246 1.72718 15.507 2.87783 14.6849C3.65257 14.1322 4.56547 13.8393 5.51694 13.8393C7.42964 13.8393 9.29401 13.2965 10.9079 12.2693L11.71 11.7592C13.0843 10.8844 14.6723 10.422 16.3019 10.422C17.9963 10.422 19.6366 10.919 21.046 11.8583C22.4896 12.8205 24.1582 13.4683 25.8722 13.7319L28.0495 14.0673C28.5181 14.1396 28.9004 14.4251 29.1118 14.8157H28.3146V15.792H29.2909V16.2802H28.3146L28.3146 17.2566H29.2909V18.233L26.3228 18.233C26.3457 18.0728 26.3618 17.9108 26.3618 17.7448C26.3618 15.8609 24.8289 14.3275 22.9446 14.3275C21.0602 14.3275 19.5273 15.8609 19.5273 17.7448C19.5273 17.9108 19.5434 18.0728 19.5663 18.233L10.7009 18.233C10.7239 18.0728 10.74 17.9108 10.74 17.7448C10.74 15.8609 9.20711 14.3275 7.32273 14.3275C5.43834 14.3275 3.90545 15.8609 3.90545 17.7448C3.90545 17.9108 3.92156 18.0728 3.94451 18.233ZM7.32273 20.1857C5.97681 20.1857 4.88182 19.0907 4.88182 17.7448C4.88182 16.3989 5.97681 15.3039 7.32273 15.3039C8.66865 15.3039 9.76364 16.3989 9.76364 17.7448C9.76364 19.0907 8.66865 20.1857 7.32273 20.1857ZM9.07384 20.6739C9.64989 20.3282 10.1146 19.8191 10.4056 19.2093L19.8617 19.2093C20.1526 19.8191 20.6174 20.3282 21.1935 20.6739L9.07384 20.6739ZM22.9446 20.1857C21.5986 20.1857 20.5037 19.0907 20.5037 17.7448C20.5037 16.3989 21.5986 15.3039 22.9446 15.3039C24.2905 15.3039 25.3855 16.3989 25.3855 17.7448C25.3855 19.0907 24.2905 20.1857 22.9446 20.1857Z" fill="black"/>
<path d="M20.7746 12.9452C19.3227 11.9772 17.6502 11.3987 16.3019 11.3987C14.8583 11.3987 13.4523 11.8083 12.2343 12.583L11.4322 13.0937C11.3512 13.1449 11.2697 13.2074 11.1882 13.2709C11.1213 13.3226 11.0549 13.3768 10.9865 13.4154L10.5848 13.6443L11.4147 15.3041L19.7885 15.3041L21.1808 13.2162L20.7746 12.9452ZM19.2661 14.3278L12.0181 14.3278L11.8506 13.9924C11.8863 13.9651 11.9214 13.9397 11.9566 13.9172L12.7582 13.4066C13.819 12.7314 15.0443 12.375 16.3019 12.375C17.495 12.375 18.8321 12.9169 19.8192 13.4984L19.2661 14.3278Z" fill="black"/>
<path d="M20.0155 4.07581L10.2518 4.07581L10.2518 5.05217L20.0155 5.05217V4.07581Z" fill="black"/>
<path d="M24.8973 2.12292L15.1336 2.12292L15.1336 3.09929L24.8973 3.09929V2.12292Z" fill="black"/>
<path d="M29.7791 0.170288L20.0154 0.170288V1.14665L29.7791 1.14665V0.170288Z" fill="black"/>
<path d="M15.1337 29.4614L5.37003 29.4614L5.37003 30.4378L15.1337 30.4378L15.1337 29.4614Z" fill="black"/>
<path d="M20.0155 27.5093L10.2518 27.5093L10.2518 28.4856L20.0155 28.4856V27.5093Z" fill="black"/>
<path d="M24.8973 25.5557L15.1336 25.5557L15.1336 26.532L24.8973 26.532V25.5557Z" fill="black"/>
<path d="M30.2688 20.6741H29.2909V21.6519H30.2688V20.6741Z" fill="black"/>
<path d="M0.977857 20.6741H-7.62939e-06L-7.62939e-06 21.6519H0.977857L0.977857 20.6741Z" fill="black"/>
</svg>
