<?xml version="1.0" encoding="UTF-8" standalone="no"?>
<svg
   xmlns:dc="http://purl.org/dc/elements/1.1/"
   xmlns:cc="http://creativecommons.org/ns#"
   xmlns:rdf="http://www.w3.org/1999/02/22-rdf-syntax-ns#"
   xmlns:svg="http://www.w3.org/2000/svg"
   xmlns="http://www.w3.org/2000/svg"
   version="1.1"
   viewBox="0 0 24 24"
   data-name="Vrstva 1"
   id="Vrstva_1">
  <metadata
     id="metadata17">
    <rdf:RDF>
      <cc:Work
         rdf:about="">
        <dc:format>image/svg+xml</dc:format>
        <dc:type
           rdf:resource="http://purl.org/dc/dcmitype/StillImage" />
      </cc:Work>
    </rdf:RDF>
  </metadata>
  <defs
     id="defs4">
    <style
       id="style2">.cls-1{fill:none;}.cls-2{fill:#ffbc42;}</style>
  </defs>
  <title
     id="title6">drive_eta-24px</title>
  <path
     id="path8"
     d="M0,0H24V24H0Z"
     class="cls-1" />
  <rect
     id="rect10"
     height="24"
     width="24"
     class="cls-2" />
  <path
     id="path12"
     d="M18.92,5A1.49,1.49,0,0,0,17.5,4H6.5A1.5,1.5,0,0,0,5.08,5L3,11v8a1,1,0,0,0,1,1H5a1,1,0,0,0,1-1V18H18v1a1,1,0,0,0,1,1h1a1,1,0,0,0,1-1V11ZM6.5,15A1.5,1.5,0,1,1,8,13.5,1.5,1.5,0,0,1,6.5,15Zm11,0A1.5,1.5,0,1,1,19,13.5,1.5,1.5,0,0,1,17.5,15ZM5,10,6.5,5.5h11L19,10Z" />
</svg>
