<svg width="139" height="159" viewBox="0 0 139 159" fill="none" xmlns="http://www.w3.org/2000/svg">
<path d="M57.2867 13.6228C57.2867 16.0082 56.1268 17.9426 54.6955 17.9426C53.2642 17.9426 52.1036 16.0082 52.1036 13.6228C52.1036 11.2373 53.2642 9.30408 54.6955 9.30408C56.1268 9.30408 57.2867 11.2373 57.2867 13.6228Z" fill="#FFBC42"/>
<path d="M74.0614 43.8583L33.6023 43.8583C32.3699 43.8583 31.3711 45.0187 31.3711 46.4492C31.3711 47.881 32.3699 49.0414 33.6023 49.0414L74.0602 49.0414C75.2926 49.0414 76.2915 47.881 76.2915 46.4492C76.2915 45.0187 75.2926 43.8583 74.0614 43.8583Z" fill="#FFBC42"/>
<path d="M22.7325 103.7C22.7325 105.002 23.7684 106.056 25.0465 106.056L37.6956 106.056C38.9737 106.056 40.0096 105.002 40.0096 103.7L40.0096 91.1354C40.0096 89.8339 38.9737 88.7792 37.6956 88.7792L25.0465 88.7792C23.7684 88.7792 22.7325 89.8339 22.7325 91.1354L22.7325 103.7ZM27.3606 93.4915L35.3815 93.4915L35.3815 101.345L27.3606 101.345L27.3606 93.4915Z" fill="#FFBC42"/>
<path d="M84.2931 88.7792L45.8297 88.7792C44.5236 88.7792 43.465 89.9393 43.465 91.3707C43.465 92.8022 44.5236 93.9623 45.8297 93.9623L84.2931 93.9623C85.598 93.9623 86.6577 92.8022 86.6577 91.3707C86.6577 89.9393 85.598 88.7792 84.2931 88.7792Z" fill="#FFBC42"/>
<path d="M45.8482 106.055L68.7252 106.055C70.0415 106.055 71.1084 104.895 71.1084 103.464C71.1084 102.034 70.0415 100.872 68.7252 100.872L45.8482 100.872C44.5319 100.872 43.465 102.034 43.465 103.464C43.465 104.897 44.5319 106.055 45.8482 106.055Z" fill="#FFBC42"/>
<path d="M22.7325 129.615C22.7325 130.917 23.7684 131.971 25.0465 131.971L37.6956 131.971C38.9737 131.971 40.0096 130.917 40.0096 129.615L40.0096 117.05C40.0096 115.749 38.9737 114.694 37.6956 114.694L25.0465 114.694C23.7684 114.694 22.7325 115.749 22.7325 117.05L22.7325 129.615ZM27.3606 119.406L35.3815 119.406L35.3815 127.259L27.3606 127.259L27.3606 119.406Z" fill="#FFBC42"/>
<path d="M86.6577 117.286C86.6577 115.854 85.598 114.694 84.2931 114.694L45.8297 114.694C44.5236 114.694 43.465 115.854 43.465 117.286C43.465 118.716 44.5236 119.877 45.8297 119.877L84.2931 119.877C85.598 119.877 86.6577 118.717 86.6577 117.286Z" fill="#FFBC42"/>
<path d="M45.8482 128.516C44.5319 128.516 43.465 129.289 43.465 130.244C43.465 131.198 44.5319 131.971 45.8482 131.971L68.7252 131.971C70.0415 131.971 71.1084 131.198 71.1084 130.244C71.1084 129.289 70.0415 128.516 68.7252 128.516L45.8482 128.516Z" fill="#FFBC42"/>
<path d="M97.3507 22.1339L67.5825 22.1339L67.5825 14.6198C67.5825 6.92527 61.4136 0.665039 53.8313 0.665039C46.2489 0.665039 40.08 6.92527 40.08 14.6198L40.08 22.1339L10.3106 22.1339C5.72803 22.1339 2 25.9171 2 30.5675L2 147.724C2 152.374 5.72803 156.159 10.3106 156.159L97.3507 156.159C101.933 156.159 105.663 152.374 105.663 147.724L105.663 100.954C105.663 99.6839 104.648 98.6541 103.396 98.6541C102.144 98.6541 101.129 99.6839 101.129 100.954L101.129 147.725C101.129 149.839 99.4339 151.558 97.3507 151.558L10.3106 151.558C8.22742 151.558 6.5335 149.838 6.5335 147.725L6.5335 30.5675C6.5335 28.4535 8.22742 26.7345 10.3106 26.7345L97.3507 26.7345C99.4339 26.7345 101.129 28.4547 101.129 30.5675L101.129 90.2585C101.129 91.5279 102.144 92.5576 103.396 92.5576C104.648 92.5576 105.663 91.5279 105.663 90.2585L105.663 30.5675C105.663 25.9171 101.933 22.1339 97.3507 22.1339ZM44.6135 14.6198C44.6135 9.46162 48.7483 5.2656 53.8313 5.2656C58.9142 5.2656 63.049 9.46162 63.049 14.6198L63.049 22.1339L44.6135 22.1339L44.6135 14.6198Z" fill="#FFBC42"/>
<path d="M13.006 71.3713C11.6989 71.3713 10.6385 72.4133 10.6385 73.699L10.6385 145.193C10.6385 146.479 11.6989 147.521 13.006 147.521L96.3829 147.521C97.6913 147.521 98.7517 146.479 98.7517 145.193L98.7517 34.0907C98.7517 32.8063 97.6913 31.7643 96.3829 31.7643L13.006 31.7643C11.6989 31.7643 10.6385 32.8063 10.6385 34.0907L10.6385 62.8267C10.6385 64.1123 11.6989 65.1543 13.006 65.1543C14.3144 65.1543 15.3748 64.1123 15.3748 62.8267L15.3748 36.4184L94.0142 36.4184L94.0142 142.865L15.3748 142.865L15.3748 73.699C15.3748 72.4133 14.3144 71.3713 13.006 71.3713V71.3713Z" fill="#FFBC42"/>
<path d="M22.7325 63.4914L22.7325 76.0564C22.7325 77.3578 23.7684 78.4125 25.0465 78.4125L37.6956 78.4125C38.9737 78.4125 40.0096 77.3578 40.0096 76.0564L40.0096 63.4914C40.0096 62.1901 38.9737 61.1354 37.6956 61.1354L25.0465 61.1354C23.7684 61.1354 22.7325 62.1901 22.7325 63.4914ZM27.3606 65.8474L35.3815 65.8474L35.3815 73.7004L27.3606 73.7004L27.3606 65.8474Z" fill="#FFBC42"/>
<path d="M84.2931 61.1354L45.8297 61.1354C44.5236 61.1354 43.465 61.9097 43.465 62.8631C43.465 63.8174 44.5236 64.5908 45.8297 64.5908L84.2931 64.5908C85.598 64.5908 86.6577 63.8174 86.6577 62.8631C86.6577 61.9088 85.598 61.1354 84.2931 61.1354Z" fill="#FFBC42"/>
<path d="M45.8482 78.4124L68.7252 78.4124C70.0415 78.4124 71.1084 77.2523 71.1084 75.8208C71.1084 74.3894 70.0415 73.2292 68.7252 73.2292L45.8482 73.2292C44.5319 73.2292 43.465 74.3894 43.465 75.8208C43.465 77.2523 44.5319 78.4124 45.8482 78.4124Z" fill="#FFBC42"/>
<path d="M131.75 23.1257L122.767 23.1257C119.051 23.1257 116.029 26.2129 116.029 30.0076L116.029 132.181C116.029 132.706 116.206 133.217 116.53 133.625L125.514 144.943C125.941 145.481 126.582 145.793 127.258 145.793C127.936 145.793 128.576 145.481 129.004 144.943L137.987 133.625C138.313 133.217 138.489 132.706 138.489 132.181L138.489 65.0336C138.489 63.7675 137.483 62.7404 136.243 62.7404C135.002 62.7404 133.997 63.7675 133.997 65.0336L133.997 131.367L127.258 139.857L120.521 131.367L120.521 45.1499L125.013 45.1499L125.013 132.181C125.013 133.448 126.019 134.475 127.258 134.475C128.499 134.475 129.504 133.448 129.504 132.181L129.504 45.1499H133.997L133.997 54.3534C133.997 55.6207 135.002 56.6478 136.243 56.6478C137.483 56.6478 138.489 55.6207 138.489 54.3534L138.489 30.0076C138.489 26.2129 135.467 23.1257 131.75 23.1257V23.1257ZM120.521 40.5624L120.521 30.0076C120.521 28.7427 121.529 27.7145 122.767 27.7145L131.752 27.7145C132.99 27.7145 133.998 28.7427 133.998 30.0076L133.998 40.5624L120.521 40.5624Z" fill="#FFBC42"/>
<path d="M55.2867 15.6228C55.2867 18.0082 54.1268 19.9426 52.6955 19.9426C51.2642 19.9426 50.1036 18.0082 50.1036 15.6228C50.1036 13.2373 51.2642 11.3041 52.6955 11.3041C54.1268 11.3041 55.2867 13.2373 55.2867 15.6228Z" fill="black"/>
<path d="M72.0614 45.8583L31.6023 45.8583C30.3699 45.8583 29.3711 47.0187 29.3711 48.4492C29.3711 49.881 30.3699 51.0414 31.6023 51.0414L72.0602 51.0414C73.2926 51.0414 74.2915 49.881 74.2915 48.4492C74.2915 47.0187 73.2926 45.8583 72.0614 45.8583Z" fill="black"/>
<path d="M20.7325 105.7C20.7325 107.002 21.7684 108.056 23.0465 108.056L35.6956 108.056C36.9737 108.056 38.0096 107.002 38.0096 105.7L38.0096 93.1354C38.0096 91.8339 36.9737 90.7792 35.6956 90.7792L23.0465 90.7792C21.7684 90.7792 20.7325 91.8339 20.7325 93.1354L20.7325 105.7ZM25.3606 95.4915L33.3815 95.4915L33.3815 103.345L25.3606 103.345L25.3606 95.4915Z" fill="black"/>
<path d="M82.2931 90.7792L43.8297 90.7792C42.5236 90.7792 41.465 91.9393 41.465 93.3707C41.465 94.8022 42.5236 95.9623 43.8297 95.9623L82.2931 95.9623C83.598 95.9623 84.6577 94.8022 84.6577 93.3707C84.6577 91.9393 83.598 90.7792 82.2931 90.7792Z" fill="black"/>
<path d="M43.8482 108.055L66.7252 108.055C68.0415 108.055 69.1084 106.895 69.1084 105.464C69.1084 104.034 68.0415 102.872 66.7252 102.872L43.8482 102.872C42.5319 102.872 41.465 104.034 41.465 105.464C41.465 106.897 42.5319 108.055 43.8482 108.055Z" fill="black"/>
<path d="M20.7325 131.615C20.7325 132.917 21.7684 133.971 23.0465 133.971L35.6956 133.971C36.9737 133.971 38.0096 132.917 38.0096 131.615L38.0096 119.05C38.0096 117.749 36.9737 116.694 35.6956 116.694L23.0465 116.694C21.7684 116.694 20.7325 117.749 20.7325 119.05L20.7325 131.615ZM25.3606 121.406L33.3815 121.406L33.3815 129.259L25.3606 129.259L25.3606 121.406Z" fill="black"/>
<path d="M84.6577 119.286C84.6577 117.854 83.598 116.694 82.2931 116.694L43.8297 116.694C42.5236 116.694 41.465 117.854 41.465 119.286C41.465 120.716 42.5236 121.877 43.8297 121.877L82.2931 121.877C83.598 121.877 84.6577 120.717 84.6577 119.286Z" fill="black"/>
<path d="M43.8482 130.516C42.5319 130.516 41.465 131.289 41.465 132.244C41.465 133.198 42.5319 133.971 43.8482 133.971L66.7252 133.971C68.0415 133.971 69.1084 133.198 69.1084 132.244C69.1084 131.289 68.0415 130.516 66.7252 130.516L43.8482 130.516Z" fill="black"/>
<path d="M95.3507 24.1339L65.5825 24.1339L65.5825 16.6198C65.5825 8.92527 59.4136 2.66504 51.8312 2.66504C44.2489 2.66504 38.08 8.92527 38.08 16.6198L38.08 24.1339L8.31063 24.1339C3.72803 24.1339 0 27.9171 0 32.5675L0 149.724C0 154.374 3.72803 158.159 8.31063 158.159L95.3507 158.159C99.9333 158.159 103.662 154.374 103.662 149.724L103.662 102.954C103.662 101.684 102.648 100.654 101.396 100.654C100.144 100.654 99.129 101.684 99.129 102.954L99.129 149.725C99.129 151.839 97.4339 153.558 95.3507 153.558L8.31063 153.558C6.22742 153.558 4.5335 151.838 4.5335 149.725L4.5335 32.5675C4.5335 30.4535 6.22742 28.7345 8.31063 28.7345L95.3507 28.7345C97.4339 28.7345 99.129 30.4547 99.129 32.5675L99.129 92.2585C99.129 93.5279 100.144 94.5576 101.396 94.5576C102.648 94.5576 103.662 93.5279 103.662 92.2585L103.662 32.5675C103.662 27.9171 99.9333 24.1339 95.3507 24.1339ZM42.6135 16.6198C42.6135 11.4616 46.7483 7.2656 51.8312 7.2656C56.9142 7.2656 61.049 11.4616 61.049 16.6198L61.049 24.1339L42.6135 24.1339L42.6135 16.6198Z" fill="black"/>
<path d="M11.006 73.3713C9.69891 73.3713 8.63854 74.4133 8.63854 75.699L8.63854 147.193C8.63854 148.479 9.69891 149.521 11.006 149.521L94.3829 149.521C95.6913 149.521 96.7517 148.479 96.7517 147.193L96.7517 36.0907C96.7517 34.8063 95.6913 33.7643 94.3829 33.7643L11.006 33.7643C9.69891 33.7643 8.63854 34.8063 8.63854 36.0907L8.63854 64.8267C8.63854 66.1123 9.69891 67.1543 11.006 67.1543C12.3144 67.1543 13.3748 66.1123 13.3748 64.8267L13.3748 38.4184L92.0142 38.4184L92.0142 144.865L13.3748 144.865L13.3748 75.699C13.3748 74.4133 12.3144 73.3713 11.006 73.3713Z" fill="black"/>
<path d="M20.7325 65.4914L20.7325 78.0564C20.7325 79.3578 21.7684 80.4125 23.0465 80.4125L35.6956 80.4125C36.9737 80.4125 38.0096 79.3578 38.0096 78.0564L38.0096 65.4914C38.0096 64.1901 36.9737 63.1354 35.6956 63.1354L23.0465 63.1354C21.7684 63.1354 20.7325 64.1901 20.7325 65.4914ZM25.3606 67.8474L33.3815 67.8474L33.3815 75.7004L25.3606 75.7004L25.3606 67.8474Z" fill="black"/>
<path d="M82.2931 63.1354L43.8297 63.1354C42.5236 63.1354 41.465 63.9097 41.465 64.8631C41.465 65.8174 42.5236 66.5908 43.8297 66.5908L82.2931 66.5908C83.598 66.5908 84.6577 65.8174 84.6577 64.8631C84.6577 63.9088 83.598 63.1354 82.2931 63.1354Z" fill="black"/>
<path d="M43.8482 80.4124L66.7252 80.4124C68.0415 80.4124 69.1084 79.2523 69.1084 77.8208C69.1084 76.3894 68.0415 75.2292 66.7252 75.2292L43.8482 75.2292C42.5319 75.2292 41.465 76.3894 41.465 77.8208C41.465 79.2523 42.5319 80.4124 43.8482 80.4124Z" fill="black"/>
<path d="M129.75 25.1257L120.767 25.1257C117.051 25.1257 114.029 28.2129 114.029 32.0076L114.029 134.181C114.029 134.706 114.206 135.217 114.53 135.625L123.514 146.943C123.941 147.481 124.582 147.793 125.258 147.793C125.936 147.793 126.576 147.481 127.004 146.943L135.987 135.625C136.313 135.217 136.489 134.706 136.489 134.181L136.489 67.0336C136.489 65.7675 135.483 64.7404 134.243 64.7404C133.002 64.7404 131.997 65.7675 131.997 67.0336L131.997 133.367L125.258 141.857L118.521 133.367L118.521 47.1499L123.013 47.1499L123.013 134.181C123.013 135.448 124.019 136.475 125.258 136.475C126.499 136.475 127.504 135.448 127.504 134.181L127.504 47.1499H131.997L131.997 56.3534C131.997 57.6207 133.002 58.6478 134.243 58.6478C135.483 58.6478 136.489 57.6207 136.489 56.3534L136.489 32.0076C136.489 28.2129 133.467 25.1257 129.75 25.1257ZM118.521 42.5624L118.521 32.0076C118.521 30.7427 119.529 29.7145 120.767 29.7145L129.752 29.7145C130.99 29.7145 131.998 30.7427 131.998 32.0076L131.998 42.5624L118.521 42.5624Z" fill="black"/>
</svg>
