<svg width="40" height="33" viewBox="0 0 40 33" fill="none" xmlns="http://www.w3.org/2000/svg">
<path d="M39.3314 18.9073H32.6459C32.6459 18.7293 32.5755 18.5586 32.4501 18.4327C32.3247 18.3069 32.1547 18.2361 31.9774 18.2361H26.6289C26.4516 18.2361 26.2816 18.3069 26.1562 18.4327C26.0308 18.5586 25.9604 18.7293 25.9604 18.9073V19.5784H25.0645C24.5326 19.5775 24.0226 19.366 23.6452 18.9898L22.0941 17.4328C21.0101 16.3522 19.6631 15.5753 18.1871 15.1793L24.6012 4.02752C24.8341 3.62172 24.957 3.16171 24.9576 2.69337C24.9595 2.10145 24.7665 1.52548 24.4086 1.05506C24.0507 0.584651 23.5479 0.246174 22.9785 0.092296C22.4092 -0.0615818 21.8051 -0.0222315 21.2603 0.204225C20.7154 0.430681 20.2605 0.831544 19.9661 1.34444L12.1808 14.8806L8.79461 14.8746H8.76719C7.97943 14.8745 7.19941 15.0307 6.47191 15.334C5.74442 15.6374 5.08377 16.082 4.5279 16.6423L0.755919 20.4374C0.396101 20.7958 0.150528 21.2535 0.0503906 21.7523C-0.0497466 22.2512 7.05298e-05 22.7686 0.193515 23.239C0.386959 23.7093 0.715301 24.1114 1.13684 24.394C1.55838 24.6766 2.05409 24.8271 2.56101 24.8264C2.89688 24.8282 3.22977 24.7631 3.54041 24.6348C3.85106 24.5066 4.13329 24.3179 4.37079 24.0795L7.5999 20.838C7.97732 20.4618 8.48737 20.2503 9.01924 20.2495H9.09211L4.92368 27.4974C4.87168 27.5875 4.84145 27.6887 4.83543 27.7927L4.56667 32.2891C4.55931 32.4134 4.58658 32.5374 4.64542 32.6471C4.70427 32.7568 4.79237 32.8479 4.89986 32.9101C5.00735 32.9724 5.12999 33.0034 5.25405 32.9997C5.3781 32.996 5.49867 32.9577 5.60226 32.889L9.34616 30.406C9.43265 30.3488 9.50474 30.2723 9.55676 30.1825L10.6418 28.3027H25.9604C25.9604 28.4807 26.0308 28.6514 26.1562 28.7773C26.2816 28.9031 26.4516 28.9738 26.6289 28.9738H31.9774C32.1547 28.9738 32.3247 28.9031 32.4501 28.7773C32.5755 28.6514 32.6459 28.4807 32.6459 28.3027H39.3314C39.5088 28.3027 39.6788 28.232 39.8042 28.1062C39.9296 27.9803 40 27.8096 40 27.6316V19.5784C40 19.4004 39.9296 19.2297 39.8042 19.1038C39.6788 18.978 39.5088 18.9073 39.3314 18.9073ZM14.595 21.5917C14.595 21.8525 14.5191 22.1077 14.3766 22.3258C14.2341 22.5438 14.0311 22.7153 13.7927 22.8191L14.5803 21.4507C14.5875 21.4974 14.5924 21.5445 14.595 21.5917ZM12.1835 22.9339H9.24655C9.19039 22.9339 9.13824 22.9473 9.08275 22.9507L18.7828 6.08915L21.1013 7.43136L12.1835 22.9339ZM7.35655 27.5155C7.82303 27.9828 8.44647 28.2585 9.10481 28.2886L8.7351 28.9302L6.41589 27.588L6.86249 26.8108C6.98813 27.071 7.15499 27.309 7.35655 27.5155ZM19.4513 4.92345L19.7856 4.34093L22.1035 5.68314L21.7692 6.26498L19.4513 4.92345ZM22.9519 1.52564C23.1552 1.64558 23.3238 1.81669 23.4411 2.02208C23.5583 2.22746 23.6201 2.46 23.6204 2.69672C23.6207 2.93007 23.5593 3.15931 23.4426 3.36111L22.7741 4.52548L20.4562 3.18327L21.1247 2.02159C21.3028 1.71396 21.5946 1.4893 21.9367 1.39644C22.2788 1.30357 22.6437 1.35 22.9519 1.52564ZM9.01924 18.9073C8.13299 18.9093 7.2833 19.2621 6.65457 19.8891L3.42545 23.1305C3.19093 23.3505 2.88196 23.4728 2.56101 23.4728C2.24007 23.4728 1.93109 23.3505 1.69657 23.1305C1.58168 23.0155 1.49063 22.8787 1.42866 22.7282C1.3667 22.5776 1.33505 22.4163 1.33555 22.2534C1.33569 22.0922 1.36773 21.9327 1.42982 21.7841C1.49191 21.6354 1.58281 21.5007 1.69724 21.3877L5.47189 17.5919C6.3536 16.7112 7.54673 16.2166 8.79059 16.2161L11.4093 16.2228L9.86429 18.9073H9.01924ZM6.10435 28.9564L7.70887 29.8852L5.98267 31.0294L6.10435 28.9564ZM9.24655 26.9605C8.89192 26.9605 8.55183 26.8191 8.30107 26.5674C8.05031 26.3157 7.90944 25.9743 7.90944 25.6183C7.90944 25.2623 8.05031 24.9209 8.30107 24.6692C8.55183 24.4175 8.89192 24.2761 9.24655 24.2761H13.2579C13.7523 24.2761 14.237 24.1386 14.6582 23.8787C15.0794 23.6189 15.4206 23.247 15.6439 22.8042C15.8672 22.3614 15.9639 21.8652 15.9232 21.3706C15.8825 20.876 15.706 20.4025 15.4133 20.0025L17.4918 16.3886C18.8755 16.6885 20.1446 17.3802 21.1488 18.3818L22.6998 19.9387C23.3286 20.5657 24.1783 20.9185 25.0645 20.9206H25.9604V26.9605H9.24655ZM31.3088 27.6316H27.2975V19.5784H31.3088V27.6316ZM38.6629 26.9605H32.6459V20.2495H38.6629V26.9605Z" fill="black"/>
</svg>
