<svg width="83" height="83" viewBox="0 0 83 83" fill="none" xmlns="http://www.w3.org/2000/svg">
<path d="M72.9968 7.2583H46.365V9.92148H72.9968V7.2583Z" fill="#FFBC42"/>
<path d="M76.9915 15.2478H50.3597V17.911H76.9915V15.2478Z" fill="#FFBC42"/>
<path d="M71.6652 23.2373H45.0334V25.9005H71.6652V23.2373Z" fill="#FFBC42"/>
<path d="M57.669 62.5643C60.3027 59.9983 60.3577 55.783 57.7917 53.1492C55.2257 50.5155 51.0104 50.4606 48.3767 53.0266C45.743 55.5925 45.688 59.8079 48.254 62.4416C48.2945 62.483 48.3354 62.524 48.3768 62.5643C46.3317 63.6092 45.0414 65.7091 45.0334 68.0058V79.1644C45.0332 79.8996 45.6291 80.4958 46.3643 80.496C46.3645 80.496 46.3648 80.496 46.365 80.496H59.6809C60.4161 80.4961 61.0123 79.9002 61.0125 79.165C61.0125 79.1649 61.0125 79.1645 61.0125 79.1644V68.0058C61.0045 65.7091 59.7143 63.6092 57.669 62.5643ZM53.0229 53.8147C55.2292 53.8147 57.0177 55.6032 57.0177 57.8095C57.0177 60.0158 55.2292 61.8043 53.0229 61.8043C50.8167 61.8043 49.0282 60.0158 49.0282 57.8095C49.0305 55.6042 50.8176 53.8172 53.0229 53.8147ZM58.3493 77.8328H47.6966V68.0058C47.6992 66.0798 49.26 64.5192 51.1862 64.5169H54.8597C56.7857 64.5192 58.3466 66.0798 58.3493 68.0058V77.8328V77.8328Z" fill="#FFBC42"/>
<path d="M78.9744 62.5643C81.6081 59.9983 81.663 55.783 79.097 53.1492C76.5311 50.5155 72.3158 50.4606 69.682 53.0266C67.0483 55.5925 66.9934 59.8079 69.5594 62.4416C69.5998 62.483 69.6408 62.524 69.6822 62.5643C67.637 63.6092 66.3467 65.7091 66.3387 68.0058V79.1644C66.3386 79.8996 66.9345 80.4958 67.6697 80.496C67.6698 80.496 67.6702 80.496 67.6703 80.496H80.9862C81.7214 80.4961 82.3177 79.9002 82.3178 79.165C82.3178 79.1649 82.3178 79.1645 82.3178 79.1644V68.0058C82.3098 65.7091 81.0197 63.6092 78.9744 62.5643ZM74.3283 53.8147C76.5346 53.8147 78.3231 55.6032 78.3231 57.8095C78.3231 60.0158 76.5346 61.8043 74.3283 61.8043C72.122 61.8043 70.3335 60.0158 70.3335 57.8095C70.3358 55.6042 72.123 53.8172 74.3283 53.8147ZM79.6547 77.8328H69.0019V68.0058C69.0046 66.0798 70.5654 64.5192 72.4915 64.5169H76.1651C78.091 64.5192 79.652 66.0798 79.6547 68.0058V77.8328V77.8328Z" fill="#FFBC42"/>
<path d="M80.9869 0.600586C80.9867 0.600586 80.9864 0.600586 80.9862 0.600586H3.75395C3.01875 0.60042 2.42253 1.19631 2.42236 1.93151C2.42236 1.93168 2.42236 1.93201 2.42236 1.93218V28.564H5.08554V3.26377H79.6546V32.5588H33.0489V35.2219H80.9862C81.7214 35.2221 82.3176 34.6262 82.3178 33.891C82.3178 33.8909 82.3178 33.8905 82.3178 33.8904V1.93218C82.318 1.19697 81.7221 0.600752 80.9869 0.600586Z" fill="#FFBC42"/>
<path d="M44.9272 12.0813C44.0155 9.88998 41.5002 8.85267 39.309 9.76431C39.2716 9.77996 39.2343 9.79594 39.1974 9.81258L28.4002 15.4136C28.8259 14.5311 29.0495 13.5647 29.0543 12.585C29.0543 8.90793 26.0734 5.927 22.3963 5.927C18.7193 5.927 15.7384 8.90793 15.7384 12.585C15.7434 14.0302 16.2233 15.4339 17.1041 16.5797H17.0487C13.269 16.605 9.89487 18.9548 8.56045 22.4913L5.00577 34.7435C4.15955 36.9416 5.25544 39.4097 7.45373 40.2559C8.45609 40.6417 9.56713 40.6352 10.565 40.2376C11.7115 39.7757 12.6037 38.8429 13.0143 37.6771L14.4068 33.2454V52.5174C13.261 51.6367 11.8573 51.1568 10.412 51.1516C6.7405 51.1462 3.75957 54.1181 3.75408 57.7898C3.75141 59.5879 4.47713 61.3104 5.76594 62.5644C3.72062 63.6093 2.43047 65.7093 2.42249 68.0059V79.1645C2.42232 79.8997 3.01821 80.4959 3.75341 80.4961C3.75358 80.4961 3.75391 80.4961 3.75408 80.4961H17.07C17.8052 80.4962 18.4014 79.9004 18.4016 79.1652C18.4016 79.165 18.4016 79.1647 18.4016 79.1645V68.0059C18.3951 66.1186 17.5182 64.3399 16.0253 63.1854H26.1043C24.6113 64.3399 23.7344 66.1186 23.7281 68.0059V79.1645C23.7279 79.8997 24.3238 80.4959 25.059 80.4961C25.0592 80.4961 25.0595 80.4961 25.0597 80.4961H38.3756C39.1108 80.4962 39.707 79.9004 39.7072 79.1652C39.7072 79.165 39.7072 79.1647 39.7072 79.1645V68.0059C39.6992 65.7093 38.4091 63.6093 36.3637 62.5644C38.9928 59.9982 39.0439 55.7866 36.4777 53.1575C34.8975 51.5385 32.6027 50.8336 30.3861 51.2863V24.0465L42.6102 17.6993C44.8014 16.7878 45.8387 14.2724 44.9272 12.0813ZM22.3963 8.59018C24.6026 8.59018 26.3911 10.3787 26.3911 12.585C26.3911 14.7912 24.6026 16.5797 22.3963 16.5797C20.1911 16.5774 18.4039 14.7902 18.4016 12.585C18.4016 10.3787 20.1901 8.59018 22.3963 8.59018ZM10.412 53.8148C12.6183 53.8148 14.4068 55.6033 14.4068 57.8096C14.4068 60.0159 12.6183 61.8044 10.412 61.8044C8.20575 61.8044 6.41726 60.0159 6.41726 57.8096C6.41959 55.6043 8.20675 53.8173 10.412 53.8148ZM15.7384 77.8329H5.08567V68.0059C5.08833 66.0799 6.64912 64.5193 8.57527 64.517H12.2488C14.1748 64.5193 15.7357 66.0799 15.7384 68.0059V77.8329ZM37.0438 68.0059V77.8329H26.3911V68.0059C26.3938 66.0799 27.9546 64.5193 29.8807 64.517H33.5542C35.4804 64.5193 37.0412 66.0799 37.0438 68.0059ZM31.7175 53.8148C33.9228 53.8172 35.7099 55.6043 35.7122 57.8096C35.7122 60.0159 33.9238 61.8044 31.7175 61.8044C29.5112 61.8044 27.7227 60.0159 27.7227 57.8096C27.7227 55.6033 29.5112 53.8148 31.7175 53.8148ZM42.4905 14.3027C42.3123 14.7601 41.9463 15.1191 41.4854 15.2884L28.4413 22.0556C27.9998 22.2846 27.7227 22.7405 27.7227 23.2377V52.5174C25.2285 54.3616 24.3644 57.6994 25.6508 60.5222H23.7279V37.8852H21.0648V60.5222H16.4788C16.8576 59.685 17.0572 58.7778 17.065 57.859H17.07V24.5693C17.0698 23.8337 16.4734 23.2377 15.7381 23.2378C15.1567 23.238 14.6425 23.6154 14.4681 24.1701L10.4919 36.8227C10.1907 37.6536 9.27269 38.0831 8.44177 37.7816C8.38352 37.7605 8.32643 37.736 8.27083 37.7082C7.50267 37.3113 7.1766 36.3845 7.52714 35.5938L11.0817 23.3417C12.0402 20.8799 14.4066 19.2544 17.0485 19.2429H26.477C26.6904 19.2432 26.9008 19.1918 27.0902 19.0934L40.3249 12.2236C41.1188 11.8924 42.034 12.2313 42.4205 12.9999C42.6254 13.405 42.6508 13.8778 42.4905 14.3027Z" fill="#FFBC42"/>
<path d="M70.9968 9.2583H44.365V11.9215H70.9968V9.2583Z" fill="black"/>
<path d="M74.9915 17.2478H48.3597V19.911H74.9915V17.2478Z" fill="black"/>
<path d="M69.6652 25.2373H43.0334V27.9005H69.6652V25.2373Z" fill="black"/>
<path d="M55.669 64.5643C58.3027 61.9983 58.3577 57.783 55.7917 55.1492C53.2257 52.5155 49.0104 52.4606 46.3767 55.0266C43.743 57.5925 43.688 61.8079 46.254 64.4416C46.2945 64.483 46.3354 64.524 46.3768 64.5643C44.3317 65.6092 43.0414 67.7091 43.0334 70.0058V81.1644C43.0332 81.8996 43.6291 82.4958 44.3643 82.496C44.3645 82.496 44.3648 82.496 44.365 82.496H57.6809C58.4161 82.4961 59.0123 81.9002 59.0125 81.165C59.0125 81.1649 59.0125 81.1645 59.0125 81.1644V70.0058C59.0045 67.7091 57.7143 65.6092 55.669 64.5643ZM51.0229 55.8147C53.2292 55.8147 55.0177 57.6032 55.0177 59.8095C55.0177 62.0158 53.2292 63.8043 51.0229 63.8043C48.8167 63.8043 47.0282 62.0158 47.0282 59.8095C47.0305 57.6042 48.8176 55.8172 51.0229 55.8147ZM56.3493 79.8328H45.6966V70.0058C45.6992 68.0798 47.26 66.5192 49.1862 66.5169H52.8597C54.7857 66.5192 56.3466 68.0798 56.3493 70.0058V79.8328Z" fill="black"/>
<path d="M76.9744 64.5643C79.6081 61.9983 79.663 57.783 77.097 55.1492C74.5311 52.5155 70.3158 52.4606 67.682 55.0266C65.0483 57.5925 64.9934 61.8079 67.5594 64.4416C67.5998 64.483 67.6408 64.524 67.6822 64.5643C65.637 65.6092 64.3467 67.7091 64.3387 70.0058V81.1644C64.3386 81.8996 64.9345 82.4958 65.6697 82.496C65.6698 82.496 65.6702 82.496 65.6703 82.496H78.9862C79.7214 82.4961 80.3177 81.9002 80.3178 81.165C80.3178 81.1649 80.3178 81.1645 80.3178 81.1644V70.0058C80.3098 67.7091 79.0197 65.6092 76.9744 64.5643ZM72.3283 55.8147C74.5346 55.8147 76.3231 57.6032 76.3231 59.8095C76.3231 62.0158 74.5346 63.8043 72.3283 63.8043C70.122 63.8043 68.3335 62.0158 68.3335 59.8095C68.3358 57.6042 70.123 55.8172 72.3283 55.8147ZM77.6547 79.8328H67.0019V70.0058C67.0046 68.0798 68.5654 66.5192 70.4915 66.5169H74.1651C76.091 66.5192 77.652 68.0798 77.6547 70.0058V79.8328Z" fill="black"/>
<path d="M78.9869 2.60059C78.9867 2.60059 78.9864 2.60059 78.9862 2.60059H1.75395C1.01875 2.60042 0.42253 3.19631 0.422363 3.93151C0.422363 3.93168 0.422363 3.93201 0.422363 3.93218V30.564H3.08554V5.26377H77.6546V34.5588H31.0489V37.2219H78.9862C79.7214 37.2221 80.3176 36.6262 80.3178 35.891C80.3178 35.8909 80.3178 35.8905 80.3178 35.8904V3.93218C80.318 3.19697 79.7221 2.60075 78.9869 2.60059Z" fill="black"/>
<path d="M42.9272 14.0813C42.0155 11.89 39.5002 10.8527 37.309 11.7643C37.2716 11.78 37.2343 11.7959 37.1974 11.8126L26.4002 17.4136C26.8259 16.5311 27.0495 15.5647 27.0543 14.585C27.0543 10.9079 24.0734 7.927 20.3963 7.927C16.7193 7.927 13.7384 10.9079 13.7384 14.585C13.7434 16.0302 14.2233 17.4339 15.1041 18.5797H15.0487C11.269 18.605 7.89487 20.9548 6.56045 24.4913L3.00577 36.7435C2.15955 38.9416 3.25544 41.4097 5.45373 42.2559C6.45609 42.6417 7.56713 42.6352 8.56499 42.2376C9.71149 41.7757 10.6037 40.8429 11.0143 39.6771L12.4068 35.2454V54.5174C11.261 53.6367 9.8573 53.1568 8.41203 53.1516C4.7405 53.1462 1.75957 56.1181 1.75408 59.7898C1.75141 61.5879 2.47713 63.3104 3.76594 64.5644C1.72062 65.6093 0.430475 67.7093 0.422485 70.0059V81.1645C0.422319 81.8997 1.01821 82.4959 1.75341 82.4961C1.75358 82.4961 1.75391 82.4961 1.75408 82.4961H15.07C15.8052 82.4962 16.4014 81.9004 16.4016 81.1652C16.4016 81.165 16.4016 81.1647 16.4016 81.1645V70.0059C16.3951 68.1186 15.5182 66.3399 14.0253 65.1854H24.1043C22.6113 66.3399 21.7344 68.1186 21.7281 70.0059V81.1645C21.7279 81.8997 22.3238 82.4959 23.059 82.4961C23.0592 82.4961 23.0595 82.4961 23.0597 82.4961H36.3756C37.1108 82.4962 37.707 81.9004 37.7072 81.1652C37.7072 81.165 37.7072 81.1647 37.7072 81.1645V70.0059C37.6992 67.7093 36.4091 65.6093 34.3637 64.5644C36.9928 61.9982 37.0439 57.7866 34.4777 55.1575C32.8975 53.5385 30.6027 52.8336 28.3861 53.2863V26.0465L40.6102 19.6993C42.8014 18.7878 43.8387 16.2724 42.9272 14.0813ZM20.3963 10.5902C22.6026 10.5902 24.3911 12.3787 24.3911 14.585C24.3911 16.7912 22.6026 18.5797 20.3963 18.5797C18.1911 18.5774 16.4039 16.7902 16.4016 14.585C16.4016 12.3787 18.1901 10.5902 20.3963 10.5902ZM8.41203 55.8148C10.6183 55.8148 12.4068 57.6033 12.4068 59.8096C12.4068 62.0159 10.6183 63.8044 8.41203 63.8044C6.20575 63.8044 4.41726 62.0159 4.41726 59.8096C4.41959 57.6043 6.20675 55.8173 8.41203 55.8148ZM13.7384 79.8329H3.08567V70.0059C3.08833 68.0799 4.64912 66.5193 6.57527 66.517H10.2488C12.1748 66.5193 13.7357 68.0799 13.7384 70.0059V79.8329ZM35.0438 70.0059V79.8329H24.3911V70.0059C24.3938 68.0799 25.9546 66.5193 27.8807 66.517H31.5542C33.4804 66.5193 35.0412 68.0799 35.0438 70.0059ZM29.7175 55.8148C31.9228 55.8172 33.7099 57.6043 33.7122 59.8096C33.7122 62.0159 31.9238 63.8044 29.7175 63.8044C27.5112 63.8044 25.7227 62.0159 25.7227 59.8096C25.7227 57.6033 27.5112 55.8148 29.7175 55.8148ZM40.4905 16.3027C40.3123 16.7601 39.9463 17.1191 39.4854 17.2884L26.4413 24.0556C25.9998 24.2846 25.7227 24.7405 25.7227 25.2377V54.5174C23.2285 56.3616 22.3644 59.6994 23.6508 62.5222H21.7279V39.8852H19.0648V62.5222H14.4788C14.8576 61.685 15.0572 60.7778 15.065 59.859H15.07V26.5693C15.0698 25.8337 14.4734 25.2377 13.7381 25.2378C13.1567 25.238 12.6425 25.6154 12.4681 26.1701L8.49192 38.8227C8.19065 39.6536 7.27269 40.0831 6.44177 39.7816C6.38352 39.7605 6.32643 39.736 6.27083 39.7082C5.50267 39.3113 5.1766 38.3845 5.52714 37.5938L9.08165 25.3417C10.0402 22.8799 12.4066 21.2544 15.0485 21.2429H24.477C24.6904 21.2432 24.9008 21.1918 25.0902 21.0934L38.3249 14.2236C39.1188 13.8924 40.034 14.2313 40.4205 14.9999C40.6254 15.405 40.6508 15.8778 40.4905 16.3027Z" fill="black"/>
</svg>
