<svg width="83" height="83" viewBox="0 0 83 83" fill="none" xmlns="http://www.w3.org/2000/svg">
<path d="M81.6895 0.677015C81.2028 0.399254 80.6042 0.403935 80.122 0.689186L51.526 17.5989C50.7842 18.0375 50.5384 18.9944 50.9771 19.7363C51.4156 20.4779 52.3724 20.7237 53.1144 20.2852L73.6316 8.15284L35.4151 47.806L16.4075 41.9908L41.2133 27.3226C41.9551 26.8838 42.2009 25.9269 41.7623 25.1851C41.3238 24.4434 40.3668 24.1973 39.6249 24.6361L11.7741 41.105C11.242 41.4197 10.9456 42.0188 11.0188 42.6328C11.092 43.2468 11.5207 43.7596 12.1118 43.9405L34.8115 50.8851L44.8261 69.1133C44.8365 69.1321 44.8473 69.1481 44.8584 69.1623C45.0255 69.441 45.276 69.6686 45.5884 69.8C45.7839 69.8822 45.9894 69.9224 46.1935 69.9224C46.5934 69.9224 46.9871 69.7685 47.2844 69.4778L58.7996 58.2238L80.4597 64.8504C80.6095 64.8961 80.7632 64.9188 80.9161 64.9188C81.2463 64.9188 81.5724 64.8139 81.8443 64.6127C82.242 64.3184 82.4767 63.853 82.4767 63.3583V2.03243C82.4767 1.47207 82.1762 0.95462 81.6895 0.677015ZM44.9111 51.8468C44.7304 52.1079 44.6335 52.4178 44.6335 52.7354V62.2808L37.7951 49.8338L68.0556 18.4359L44.9111 51.8468ZM47.7544 64.6549V54.8448L55.3991 57.1836L47.7544 64.6549ZM79.3558 61.249L48.693 51.8682L79.3558 7.60387V61.249Z" fill="#FFBC42"/>
<path d="M28.2388 54.7097C27.6293 54.1003 26.6415 54.1003 26.0319 54.7097L11.4647 69.2769C10.8554 69.8862 10.8554 70.8743 11.4647 71.4838C11.7696 71.7884 12.1689 71.9407 12.5683 71.9407C12.9676 71.9407 13.3669 71.7884 13.6717 71.4837L28.2388 56.9165C28.8482 56.3073 28.8482 55.3192 28.2388 54.7097Z" fill="#FFBC42"/>
<path d="M8.83422 74.1142C8.2247 73.5052 7.23694 73.5052 6.62742 74.1144L3.03838 77.7034C2.42902 78.3128 2.42902 79.3009 3.03838 79.9104C3.34313 80.215 3.74246 80.3673 4.14178 80.3673C4.5411 80.3673 4.94042 80.2148 5.24517 79.9102L8.83422 76.3212C9.44358 75.7118 9.44358 74.7238 8.83422 74.1142Z" fill="#FFBC42"/>
<path d="M24.841 77.6118C24.5509 77.3215 24.1483 77.1545 23.7379 77.1545C23.3258 77.1545 22.9249 77.3215 22.6347 77.6118C22.3445 77.902 22.1775 78.303 22.1775 78.715C22.1775 79.1254 22.3443 79.528 22.6347 79.8182C22.9249 80.1085 23.3275 80.2755 23.7379 80.2755C24.1483 80.2755 24.5509 80.1085 24.841 79.8182C25.1313 79.528 25.2984 79.1254 25.2984 78.715C25.2984 78.303 25.1314 77.902 24.841 77.6118Z" fill="#FFBC42"/>
<path d="M36.4511 66.001C35.8421 65.3916 34.8543 65.3916 34.2443 66.001L26.5285 73.7166C25.9191 74.326 25.9191 75.3141 26.5285 75.9234C26.8332 76.2282 27.2326 76.3805 27.6319 76.3805C28.0312 76.3805 28.4305 76.228 28.7353 75.9234L36.4511 68.2078C37.0605 67.5984 37.0605 66.6103 36.4511 66.001Z" fill="#FFBC42"/>
<path d="M63.0807 65.4087C62.4712 64.7995 61.4834 64.7995 60.8739 65.4087L53.1372 73.1454C52.5278 73.7548 52.5278 74.7429 53.1372 75.3524C53.442 75.657 53.8413 75.8094 54.2406 75.8094C54.6399 75.8094 55.0392 75.657 55.344 75.3524L63.0807 67.6156C63.6901 67.0063 63.6901 66.0182 63.0807 65.4087Z" fill="#FFBC42"/>
<path d="M46.8203 21.7425C46.53 21.4522 46.1274 21.2853 45.717 21.2853C45.3066 21.2853 44.904 21.4522 44.6138 21.7425C44.3237 22.0327 44.1566 22.4353 44.1566 22.8473C44.1566 23.2577 44.3235 23.6587 44.6138 23.949C44.904 24.2408 45.3066 24.4062 45.717 24.4062C46.1274 24.4062 46.53 24.2408 46.8203 23.949C47.1103 23.6587 47.2775 23.2577 47.2775 22.8473C47.2775 22.4353 47.1105 22.0327 46.8203 21.7425Z" fill="#FFBC42"/>
<path d="M79.6895 2.67701C79.2028 2.39925 78.6042 2.40394 78.122 2.68919L49.526 19.5989C48.7842 20.0375 48.5384 20.9944 48.9771 21.7363C49.4156 22.4779 50.3724 22.7237 51.1144 22.2852L71.6316 10.1528L33.4151 49.806L14.4075 43.9908L39.2133 29.3226C39.9551 28.8838 40.2009 27.9269 39.7623 27.1851C39.3238 26.4434 38.3668 26.1973 37.6249 26.6361L9.77408 43.105C9.24196 43.4197 8.94563 44.0188 9.01882 44.6328C9.092 45.2468 9.52066 45.7596 10.1118 45.9405L32.8115 52.8851L42.8261 71.1133C42.8365 71.1321 42.8473 71.1481 42.8584 71.1623C43.0255 71.441 43.276 71.6686 43.5884 71.8C43.7839 71.8822 43.9894 71.9224 44.1935 71.9224C44.5934 71.9224 44.9871 71.7685 45.2844 71.4778L56.7996 60.2238L78.4597 66.8504C78.6095 66.8961 78.7632 66.9188 78.9161 66.9188C79.2463 66.9188 79.5724 66.8139 79.8443 66.6127C80.242 66.3184 80.4767 65.853 80.4767 65.3583V4.03243C80.4767 3.47207 80.1762 2.95462 79.6895 2.67701ZM42.9111 53.8468C42.7304 54.1079 42.6335 54.4178 42.6335 54.7354V64.2808L35.7951 51.8338L66.0556 20.4359L42.9111 53.8468ZM45.7544 66.6549V56.8448L53.3991 59.1836L45.7544 66.6549ZM77.3558 63.249L46.693 53.8682L77.3558 9.60387V63.249Z" fill="black"/>
<path d="M26.2388 56.7097C25.6293 56.1003 24.6415 56.1003 24.0319 56.7097L9.46471 71.2769C8.85535 71.8862 8.85535 72.8743 9.46471 73.4838C9.76962 73.7884 10.1689 73.9407 10.5683 73.9407C10.9676 73.9407 11.3669 73.7884 11.6717 73.4837L26.2388 58.9165C26.8482 58.3073 26.8482 57.3192 26.2388 56.7097Z" fill="black"/>
<path d="M6.83422 76.1142C6.2247 75.5052 5.23694 75.5052 4.62742 76.1144L1.03838 79.7034C0.42902 80.3128 0.42902 81.3009 1.03838 81.9104C1.34313 82.215 1.74246 82.3673 2.14178 82.3673C2.5411 82.3673 2.94042 82.2148 3.24517 81.9102L6.83422 78.3212C7.44358 77.7118 7.44358 76.7238 6.83422 76.1142Z" fill="black"/>
<path d="M22.841 79.6118C22.5509 79.3215 22.1483 79.1545 21.7379 79.1545C21.3258 79.1545 20.9249 79.3215 20.6347 79.6118C20.3445 79.902 20.1775 80.303 20.1775 80.715C20.1775 81.1254 20.3443 81.528 20.6347 81.8182C20.9249 82.1085 21.3275 82.2755 21.7379 82.2755C22.1483 82.2755 22.5509 82.1085 22.841 81.8182C23.1313 81.528 23.2984 81.1254 23.2984 80.715C23.2984 80.303 23.1314 79.902 22.841 79.6118Z" fill="black"/>
<path d="M34.4511 68.001C33.8421 67.3916 32.8543 67.3916 32.2443 68.001L24.5285 75.7166C23.9191 76.326 23.9191 77.3141 24.5285 77.9234C24.8332 78.2282 25.2326 78.3805 25.6319 78.3805C26.0312 78.3805 26.4305 78.228 26.7353 77.9234L34.4511 70.2078C35.0605 69.5984 35.0605 68.6103 34.4511 68.001Z" fill="black"/>
<path d="M61.0807 67.4087C60.4712 66.7995 59.4834 66.7995 58.8739 67.4087L51.1372 75.1454C50.5278 75.7548 50.5278 76.7429 51.1372 77.3524C51.442 77.657 51.8413 77.8094 52.2406 77.8094C52.6399 77.8094 53.0392 77.657 53.344 77.3524L61.0807 69.6156C61.6901 69.0063 61.6901 68.0182 61.0807 67.4087Z" fill="black"/>
<path d="M44.8203 23.7425C44.53 23.4522 44.1274 23.2853 43.717 23.2853C43.3066 23.2853 42.904 23.4522 42.6138 23.7425C42.3237 24.0327 42.1566 24.4353 42.1566 24.8473C42.1566 25.2577 42.3235 25.6587 42.6138 25.949C42.904 26.2408 43.3066 26.4062 43.717 26.4062C44.1274 26.4062 44.53 26.2408 44.8203 25.949C45.1103 25.6587 45.2775 25.2577 45.2775 24.8473C45.2775 24.4353 45.1105 24.0327 44.8203 23.7425Z" fill="black"/>
</svg>
