<svg width="354" height="218" viewBox="0 0 354 218" fill="none" xmlns="http://www.w3.org/2000/svg">
<path d="M239.902 196.134L222.674 196.134C208.854 196.134 197.319 186.979 194.738 174.889C166.528 173.234 141.578 158.06 128.801 134.428L109.299 98.3516C108.9 97.6243 108.695 96.8126 108.695 95.9957V90.7252H86.9878L83.8306 100.581C111.653 110.453 131.491 135.35 131.491 164.511H120.093C120.093 140.12 103.703 119.244 80.5879 110.695L78.9694 115.755C99.7249 123.634 114.394 142.513 114.394 164.511C114.394 193.573 88.8286 217.216 57.4046 217.216C25.9807 217.216 0.415283 193.573 0.415283 164.511C0.415283 135.45 25.9807 111.807 57.4046 111.807C61.0406 111.807 64.591 112.155 68.0388 112.761L69.6687 107.664C65.7023 106.937 61.6047 106.537 57.4046 106.537C42.1144 106.537 27.3883 111.686 15.9392 121.03L8.39948 113.125C21.9344 102.078 39.339 95.9957 57.4046 95.9957C62.7274 95.9957 67.9135 96.5438 72.9171 97.5347L79.2657 77.7231C76.1199 79.241 72.5923 80.1844 68.8025 80.1844H51.7057C48.5599 80.1844 46.0067 77.8232 46.0067 74.9139V43.2912C46.0067 40.382 48.5599 38.0208 51.7057 38.0208H68.8025C77.2882 38.0208 84.6227 42.3847 88.5436 48.762L97.5308 20.7127C98.2489 18.478 100.471 16.939 102.996 16.939L142.889 16.939V27.4799L107.253 27.4799L97.1205 59.1026H108.695V53.8321C108.695 50.9229 111.248 48.5617 114.394 48.5617H117.796C142.615 48.5617 166.961 56.4621 186.343 70.7977C187.694 71.7991 188.48 73.3117 188.48 74.9139V90.7252H199.878V74.9139C199.878 72.3103 201.93 70.102 204.711 69.7067L250.633 63.1714C269.616 60.4729 288.969 59.1026 308.158 59.1026C311.304 59.1026 313.857 61.4637 313.857 64.373V95.7322C330.714 103.511 342.351 119.581 342.351 138.159V164.511H348.05C351.196 164.511 353.749 166.867 353.749 169.782V190.864C353.749 193.778 351.196 196.134 348.05 196.134H330.822C320.069 209.342 303.354 217.216 285.362 217.216C267.371 217.216 250.656 209.342 239.902 196.134ZM57.4046 122.348C32.2666 122.348 11.8131 141.264 11.8131 164.511C11.8131 187.759 32.2666 206.675 57.4046 206.675C82.5426 206.675 102.996 187.759 102.996 164.511C102.996 147.288 91.7578 132.462 75.7096 125.927L74.074 131.039C87.7571 136.894 97.2972 149.675 97.2972 164.511C97.2972 184.85 79.4025 201.405 57.4046 201.405C35.4067 201.405 17.5121 184.85 17.5121 164.511C17.5121 144.173 35.4067 127.618 57.4046 127.618C59.3593 127.618 61.2628 127.792 63.1435 128.045L64.7733 122.949C62.3684 122.585 59.9178 122.348 57.4046 122.348ZM62.8699 166.008L51.9394 163.015L59.8324 138.386C59.0174 138.323 58.2367 138.159 57.4046 138.159C41.6927 138.159 28.9099 149.981 28.9099 164.511C28.9099 179.042 41.6927 190.864 57.4046 190.864C73.1166 190.864 85.8993 179.042 85.8993 164.511C85.8993 154.466 79.7217 145.822 70.7629 141.379L62.8699 166.008ZM68.8025 48.5617H57.4046V69.6435H68.8025C75.0884 69.6435 80.2004 64.9159 80.2004 59.1026C80.2004 53.2893 75.0884 48.5617 68.8025 48.5617ZM188.48 117.077V101.266H177.082V117.077C177.082 119.987 174.529 122.348 171.383 122.348H166.26C168.91 134.359 180.416 143.43 194.179 143.43H199.878C203.024 143.43 205.577 145.786 205.577 148.7V164.511L228.373 164.511C228.373 157.017 230.099 149.891 233.166 143.43H222.674C219.528 143.43 216.975 141.074 216.975 138.159C216.975 129.442 209.304 122.348 199.878 122.348H194.179C191.033 122.348 188.48 119.987 188.48 117.077ZM165.684 111.807V101.266L154.287 101.266V111.807L165.684 111.807ZM138.996 129.711C149.744 149.586 170.551 162.472 194.179 164.269V153.971C174.125 153.971 157.524 140.194 154.742 122.348H148.588C145.442 122.348 142.889 119.987 142.889 117.077V101.266H123.615L138.996 129.711ZM93.741 69.6435L90.3616 80.1844H108.695V69.6435H93.741ZM177.082 77.4912C160.692 66.0438 140.632 59.5769 120.093 59.1289V90.7252L177.082 90.7252V77.4912ZM302.459 69.6856C285.721 69.9281 268.898 71.2404 252.365 73.591L211.276 79.436V90.7252L291.061 90.7252C294.982 90.7252 298.789 91.1732 302.459 91.948V69.6856ZM291.061 101.266L199.878 101.266V111.807C213.641 111.807 225.153 120.877 227.797 132.889H239.879C250.291 120.119 266.772 111.807 285.362 111.807C303.69 111.807 319.977 119.881 330.412 132.351C327.38 114.764 310.916 101.266 291.061 101.266ZM285.362 122.348C260.224 122.348 239.771 141.264 239.771 164.511H245.47C245.47 144.173 263.364 127.618 285.362 127.618C307.36 127.618 325.255 144.173 325.255 164.511H330.954C330.954 141.264 310.5 122.348 285.362 122.348ZM313.857 164.511C313.857 149.981 301.074 138.159 285.362 138.159C269.65 138.159 256.867 149.981 256.867 164.511H313.857ZM342.351 175.052L206.551 175.052C208.905 181.187 215.242 185.593 222.674 185.593L342.351 185.593V175.052ZM315.475 196.134H255.243C263.472 202.843 274.118 206.675 285.356 206.675C296.595 206.675 307.246 202.843 315.475 196.134Z" fill="#0496FF"/>
<rect width="9.46092" height="9" transform="matrix(1 0 0 -1 100.197 9.09167)" fill="#0496FF"/>
<rect width="27.4367" height="9" transform="matrix(-4.37114e-08 1 1 4.37114e-08 152 17)" fill="#0496FF"/>
</svg>
