<svg width="94" height="59" viewBox="0 0 94 59" fill="none" xmlns="http://www.w3.org/2000/svg">
<path d="M30.3382 52.0213H34.905C38.5685 52.0213 41.6261 49.3972 42.3105 45.9317C49.7884 45.4573 56.4022 41.108 59.7892 34.3341L64.9588 23.9934C65.0645 23.7849 65.1189 23.5522 65.1189 23.3181V21.8074H70.8732L71.7101 24.6324C64.3349 27.4619 59.0762 34.5984 59.0762 42.9571H62.0975C62.0975 35.9656 66.4423 29.9817 72.5697 27.5314L72.9987 28.9817C67.4968 31.2402 63.6082 36.6515 63.6082 42.9571C63.6082 51.2871 70.3852 58.0641 78.7152 58.0641C87.0452 58.0641 93.8221 51.2871 93.8221 42.9571C93.8221 34.6271 87.0452 27.8502 78.7152 27.8502C77.7514 27.8502 76.8102 27.9499 75.8962 28.1236L75.4642 26.6628C76.5156 26.4543 77.6018 26.3395 78.7152 26.3395C82.7684 26.3395 86.672 27.8154 89.707 30.4939L91.7057 28.2278C88.1177 25.0614 83.5041 23.3181 78.7152 23.3181C77.3042 23.3181 75.9295 23.4752 74.6031 23.7592L72.9202 18.0805C73.7541 18.5156 74.6892 18.786 75.6938 18.786H80.2259C81.0598 18.786 81.7366 18.1092 81.7366 17.2753V8.21113C81.7366 7.37722 81.0598 6.70043 80.2259 6.70043H75.6938C73.4444 6.70043 71.5001 7.95129 70.4607 9.77923L68.0784 1.73931C67.888 1.09878 67.2989 0.657654 66.6296 0.657654H56.0548V3.67904H65.5011L68.1871 12.7432H65.1189V11.2325C65.1189 10.3986 64.4421 9.72182 63.6082 9.72182H62.7064C56.1273 9.72182 49.6736 11.9864 44.5357 16.0954C44.1777 16.3825 43.9692 16.816 43.9692 17.2753V21.8074H40.9478V17.2753C40.9478 16.529 40.404 15.896 39.6667 15.7827L27.4936 13.9095C22.4614 13.136 17.3311 12.7432 12.2446 12.7432C11.4107 12.7432 10.7339 13.42 10.7339 14.2539V23.2425C6.26529 25.4723 3.18045 30.0784 3.18045 35.4036V42.9571H1.66975C0.835849 42.9571 0.159058 43.6324 0.159058 44.4678V50.5106C0.159058 51.346 0.835849 52.0213 1.66975 52.0213H6.23658C9.08726 55.8071 13.5181 58.0641 18.2874 58.0641C23.0567 58.0641 27.4875 55.8071 30.3382 52.0213ZM78.7152 30.8715C85.3789 30.8715 90.8007 36.2934 90.8007 42.9571C90.8007 49.6208 85.3789 55.0427 78.7152 55.0427C72.0515 55.0427 66.6296 49.6208 66.6296 42.9571C66.6296 38.0202 69.6087 33.7706 73.8628 31.8973L74.2964 33.3627C70.6692 35.0411 68.1403 38.7045 68.1403 42.9571C68.1403 48.7869 72.8839 53.532 78.7152 53.532C84.5465 53.532 89.29 48.7869 89.29 42.9571C89.29 37.1273 84.5465 32.3822 78.7152 32.3822C78.197 32.3822 77.6924 32.4321 77.1939 32.5046L76.7619 31.0438C77.3994 30.9395 78.049 30.8715 78.7152 30.8715ZM77.2664 43.3861L80.1639 42.5281L78.0716 35.4686C78.2877 35.4505 78.4946 35.4036 78.7152 35.4036C82.8802 35.4036 86.2687 38.7921 86.2687 42.9571C86.2687 47.1221 82.8802 50.5106 78.7152 50.5106C74.5502 50.5106 71.1617 47.1221 71.1617 42.9571C71.1617 40.0777 72.7993 37.6002 75.1741 36.3267L77.2664 43.3861ZM75.6938 9.72182H78.7152V15.7646H75.6938C74.0275 15.7646 72.6724 14.4095 72.6724 12.7432C72.6724 11.0769 74.0275 9.72182 75.6938 9.72182ZM43.9692 29.3609V24.8288H46.9906V29.3609C46.9906 30.1948 47.6674 30.8715 48.5013 30.8715H49.8594C49.1569 34.3144 46.1068 36.9143 42.4585 36.9143H40.9478C40.1139 36.9143 39.4371 37.5896 39.4371 38.425V42.9571H33.3943C33.3943 40.8089 32.9366 38.7664 32.1238 36.9143H34.905C35.7389 36.9143 36.4157 36.239 36.4157 35.4036C36.4157 32.9049 38.4491 30.8715 40.9478 30.8715H42.4585C43.2924 30.8715 43.9692 30.1948 43.9692 29.3609ZM50.012 27.8502V24.8288H53.0334V27.8502H50.012ZM57.0866 32.982C54.2374 38.6788 48.7219 42.3725 42.4585 42.8876V39.9357C47.7746 39.9357 52.1753 35.9868 52.9125 30.8715H54.5441C55.378 30.8715 56.0548 30.1948 56.0548 29.3609V24.8288H61.1639L57.0866 32.982ZM69.083 15.7646L69.9788 18.786H65.1189V15.7646H69.083ZM46.9906 18.014C51.3354 14.7328 56.653 12.8792 62.0975 12.7508V21.8074H46.9906V18.014ZM13.7553 15.7767C18.1922 15.8462 22.6518 16.2223 27.0343 16.8961L37.9264 18.5715V21.8074H16.7767C15.7373 21.8074 14.7282 21.9358 13.7553 22.1579V15.7767ZM16.7767 24.8288H40.9478V27.8502C37.2995 27.8502 34.2479 30.4501 33.5469 33.8929H30.3442C27.5842 30.2325 23.2153 27.8502 18.2874 27.8502C13.429 27.8502 9.11143 30.1645 6.34535 33.7388C7.14904 28.6977 11.5134 24.8288 16.7767 24.8288ZM18.2874 30.8715C24.9511 30.8715 30.373 36.2934 30.373 42.9571H28.8623C28.8623 37.1273 24.1187 32.3822 18.2874 32.3822C12.4561 32.3822 7.71253 37.1273 7.71253 42.9571H6.20184C6.20184 36.2934 11.6237 30.8715 18.2874 30.8715ZM10.7339 42.9571C10.7339 38.7921 14.1224 35.4036 18.2874 35.4036C22.4524 35.4036 25.8409 38.7921 25.8409 42.9571H10.7339ZM3.18045 45.9785H39.1788C38.5549 47.7369 36.875 48.9999 34.905 48.9999H3.18045V45.9785ZM10.3049 52.0213H26.2714C24.09 53.9444 21.268 55.0427 18.2889 55.0427C15.3098 55.0427 12.4863 53.9444 10.3049 52.0213Z" fill="black"/>
</svg>
