<svg width="79" height="83" viewBox="0 0 79 83" fill="none" xmlns="http://www.w3.org/2000/svg">
<path d="M33.3037 49.7385C35.4281 47.7034 36.7548 44.8421 36.7548 41.6749V35.5713C37.7199 34.3025 38.2945 32.721 38.2945 31.0073V24.6252C38.2945 23.7633 37.5959 23.0647 36.7341 23.0647H23.8735C18.6549 23.0647 14.409 27.3104 14.409 32.5292V41.6749C14.409 44.842 15.7359 47.7034 17.8602 49.7385C9.16106 50.0474 2.17926 57.2192 2.17926 65.9923V78.732C2.17926 79.5939 2.87788 80.2925 3.73972 80.2925H47.4241C48.286 80.2925 48.9846 79.5939 48.9846 78.732V65.9923C48.9846 57.2194 42.0028 50.0475 33.3037 49.7385ZM23.8737 26.1858H35.1738V31.0074C35.1738 33.452 33.1849 35.4408 30.7405 35.4408H17.5303V35.2353V32.5293H17.5301C17.5301 29.0314 20.3758 26.1858 23.8737 26.1858ZM17.5301 41.675V38.5616H30.7403C31.7649 38.5616 32.7422 38.3556 33.6339 37.9844V41.675C33.6339 46.115 30.0219 49.727 25.5819 49.727C21.142 49.727 17.5301 46.115 17.5301 41.675ZM31.9113 52.8479L25.8108 63.1875L19.7104 52.8479H31.9113ZM45.8638 77.1716H45.8637H42.3517V66.2583C42.3517 65.3965 41.6531 64.6979 40.7912 64.6979C39.9294 64.6979 39.2308 65.3965 39.2308 66.2583V77.1716H12.3909V66.2583C12.3909 65.3965 11.6923 64.6979 10.8304 64.6979C9.9686 64.6979 9.26998 65.3965 9.26998 66.2583V77.1716H5.30033V65.9923C5.30033 59.5092 10.0195 54.1111 16.202 53.0433L24.4668 67.0514C24.7474 67.527 25.2586 67.8188 25.8108 67.8188C26.3631 67.8188 26.8741 67.5268 27.1549 67.0514L35.3758 53.118C41.3546 54.3499 45.8638 59.6545 45.8638 65.9924V77.1716V77.1716Z" fill="#FFBC42"/>
<path d="M70.4606 0.397217H61.6364C60.7745 0.397217 60.0759 1.09583 60.0759 1.95768C60.0759 2.81952 60.7745 3.51813 61.6364 3.51813H70.4606C73.0419 3.51813 75.142 5.6182 75.142 8.19951V29.1054C75.142 31.6868 73.0419 33.7868 70.4606 33.7868H64.7719C64.3583 33.7868 63.9614 33.9511 63.6689 34.2436L56.2974 41.6114V35.3471C56.2974 34.4853 55.5988 33.7867 54.737 33.7867H41.4361C40.5742 33.7867 39.8756 34.4853 39.8756 35.3471C39.8756 36.209 40.5742 36.9076 41.4361 36.9076H53.1765V45.3773C53.1765 46.0083 53.5566 46.5773 54.1396 46.8188C54.3328 46.8989 54.5355 46.9377 54.7366 46.9377C55.1427 46.9377 55.5417 46.7792 55.8402 46.4808L65.4183 36.9074H70.4608C74.7629 36.9074 78.263 33.4073 78.263 29.1051V8.19951C78.2629 3.89733 74.7629 0.397217 70.4606 0.397217Z" fill="#FFBC42"/>
<path d="M57.0517 0.854431C56.7615 0.564186 56.3589 0.397217 55.9485 0.397217C55.5381 0.397217 55.1355 0.564186 54.8452 0.854431C54.555 1.14468 54.388 1.54727 54.388 1.95768C54.388 2.36808 54.555 2.77067 54.8452 3.06092C55.1355 3.35116 55.5381 3.51813 55.9485 3.51813C56.3589 3.51813 56.7615 3.35116 57.0517 3.06092C57.3419 2.77067 57.5089 2.36808 57.5089 1.95768C57.5089 1.54727 57.3419 1.14468 57.0517 0.854431Z" fill="#FFBC42"/>
<path d="M50.2449 0.397217H41.4361C37.134 0.397217 33.6339 3.89732 33.6339 8.19951V16.8565C33.6339 17.7183 34.3325 18.4169 35.1943 18.4169C36.0561 18.4169 36.7548 17.7183 36.7548 16.8565V8.19951C36.7548 5.6182 38.8548 3.51813 41.4361 3.51813H50.2449C51.1068 3.51813 51.8054 2.81952 51.8054 1.95768C51.8054 1.09583 51.1068 0.397217 50.2449 0.397217Z" fill="#FFBC42"/>
<path d="M35.5636 67.0421H33.379C32.5172 67.0421 31.8185 67.7407 31.8185 68.6026C31.8185 69.4644 32.5172 70.163 33.379 70.163H35.5636C36.4255 70.163 37.1241 69.4644 37.1241 68.6026C37.1241 67.7407 36.4255 67.0421 35.5636 67.0421Z" fill="#FFBC42"/>
<path d="M22.9916 41.2137C22.7014 40.9234 22.3004 40.7565 21.8884 40.7565C21.478 40.7565 21.0754 40.9234 20.7852 41.2137C20.4949 41.5039 20.3279 41.9065 20.3279 42.3169C20.3279 42.7273 20.4949 43.1299 20.7852 43.4202C21.0754 43.7104 21.478 43.8774 21.8884 43.8774C22.3004 43.8774 22.7014 43.7104 22.9916 43.4202C23.2834 43.1299 23.4489 42.7273 23.4489 42.3169C23.4489 41.9065 23.2834 41.5039 22.9916 41.2137Z" fill="#FFBC42"/>
<path d="M30.3787 41.2137C30.0885 40.9234 29.6859 40.7565 29.2755 40.7565C28.8635 40.7565 28.4625 40.9234 28.1722 41.2137C27.8804 41.5039 27.715 41.905 27.715 42.3169C27.715 42.7273 27.8804 43.1299 28.1722 43.4202C28.4625 43.7104 28.8651 43.8774 29.2755 43.8774C29.6859 43.8774 30.0885 43.7104 30.3787 43.4202C30.669 43.1299 30.8359 42.7273 30.8359 42.3169C30.8359 41.9065 30.669 41.5039 30.3787 41.2137Z" fill="#FFBC42"/>
<path d="M61.7101 14.3622C61.5132 11.5059 59.2107 9.20359 56.3545 9.00666C54.7353 8.89462 53.1908 9.44156 52.008 10.5456C50.8418 11.6342 50.1729 13.1734 50.1729 14.7683C50.1729 15.6302 50.8715 16.3288 51.7333 16.3288C52.5952 16.3288 53.2938 15.6302 53.2938 14.7683C53.2938 14.0245 53.5934 13.3349 54.1377 12.827C54.6812 12.3197 55.3912 12.0692 56.1399 12.1201C57.4501 12.2104 58.5063 13.2666 58.5967 14.5769C58.688 15.9009 57.8197 17.071 56.532 17.359C55.2696 17.6416 54.388 18.7389 54.388 20.0277V23.1595C54.388 24.0214 55.0866 24.72 55.9484 24.72C56.8103 24.72 57.5089 24.0214 57.5089 23.1595V20.3306C60.1489 19.5964 61.9011 17.1342 61.7101 14.3622Z" fill="#FFBC42"/>
<path d="M57.0517 27.2119C56.7615 26.9216 56.3589 26.7562 55.9485 26.7562C55.5381 26.7562 55.1355 26.9216 54.8452 27.2119C54.555 27.5037 54.388 27.9047 54.388 28.3167C54.388 28.7271 54.555 29.1297 54.8452 29.4199C55.1355 29.7102 55.5381 29.8771 55.9485 29.8771C56.3589 29.8771 56.7615 29.7102 57.0517 29.4199C57.3419 29.1297 57.5089 28.7271 57.5089 28.3167C57.5089 27.9047 57.3419 27.5037 57.0517 27.2119Z" fill="#FFBC42"/>
<path d="M31.3037 51.7385C33.4281 49.7034 34.7548 46.8421 34.7548 43.6749V37.5713C35.7199 36.3025 36.2945 34.721 36.2945 33.0073V26.6252C36.2945 25.7633 35.5959 25.0647 34.7341 25.0647H21.8735C16.6549 25.0647 12.409 29.3104 12.409 34.5292V43.6749C12.409 46.842 13.7359 49.7034 15.8602 51.7385C7.16106 52.0474 0.17926 59.2192 0.17926 67.9923V80.732C0.17926 81.5939 0.877877 82.2925 1.73972 82.2925H45.4241C46.286 82.2925 46.9846 81.5939 46.9846 80.732V67.9923C46.9846 59.2194 40.0028 52.0475 31.3037 51.7385ZM21.8737 28.1858H33.1738V33.0074C33.1738 35.452 31.1849 37.4408 28.7405 37.4408H15.5303V37.2353V34.5293H15.5301C15.5301 31.0314 18.3758 28.1858 21.8737 28.1858ZM15.5301 43.675V40.5616H28.7403C29.7649 40.5616 30.7422 40.3556 31.6339 39.9844V43.675C31.6339 48.115 28.0219 51.727 23.5819 51.727C19.142 51.727 15.5301 48.115 15.5301 43.675ZM29.9113 54.8479L23.8108 65.1875L17.7104 54.8479H29.9113ZM43.8638 79.1716H43.8637H40.3517V68.2583C40.3517 67.3965 39.6531 66.6979 38.7912 66.6979C37.9294 66.6979 37.2308 67.3965 37.2308 68.2583V79.1716H10.3909V68.2583C10.3909 67.3965 9.69228 66.6979 8.83044 66.6979C7.9686 66.6979 7.26998 67.3965 7.26998 68.2583V79.1716H3.30033V67.9923C3.30033 61.5092 8.01947 56.1111 14.202 55.0433L22.4668 69.0514C22.7474 69.527 23.2586 69.8188 23.8108 69.8188C24.3631 69.8188 24.8741 69.5268 25.1549 69.0514L33.3758 55.118C39.3546 56.3499 43.8638 61.6545 43.8638 67.9924V79.1716Z" fill="black"/>
<path d="M68.4606 2.39722H59.6364C58.7745 2.39722 58.0759 3.09583 58.0759 3.95768C58.0759 4.81952 58.7745 5.51813 59.6364 5.51813H68.4606C71.0419 5.51813 73.142 7.6182 73.142 10.1995V31.1054C73.142 33.6868 71.0419 35.7868 68.4606 35.7868H62.7719C62.3583 35.7868 61.9614 35.9511 61.6689 36.2436L54.2974 43.6114V37.3471C54.2974 36.4853 53.5988 35.7867 52.737 35.7867H39.4361C38.5742 35.7867 37.8756 36.4853 37.8756 37.3471C37.8756 38.209 38.5742 38.9076 39.4361 38.9076H51.1765V47.3773C51.1765 48.0083 51.5566 48.5773 52.1396 48.8188C52.3328 48.8989 52.5355 48.9377 52.7366 48.9377C53.1427 48.9377 53.5417 48.7792 53.8402 48.4808L63.4183 38.9074H68.4608C72.7629 38.9074 76.263 35.4073 76.263 31.1051V10.1995C76.2629 5.89733 72.7629 2.39722 68.4606 2.39722Z" fill="black"/>
<path d="M55.0517 2.85443C54.7615 2.56419 54.3589 2.39722 53.9485 2.39722C53.5381 2.39722 53.1355 2.56419 52.8452 2.85443C52.555 3.14468 52.388 3.54727 52.388 3.95768C52.388 4.36808 52.555 4.77067 52.8452 5.06092C53.1355 5.35116 53.5381 5.51813 53.9485 5.51813C54.3589 5.51813 54.7615 5.35116 55.0517 5.06092C55.3419 4.77067 55.5089 4.36808 55.5089 3.95768C55.5089 3.54727 55.3419 3.14468 55.0517 2.85443Z" fill="black"/>
<path d="M48.2449 2.39722H39.4361C35.134 2.39722 31.6339 5.89732 31.6339 10.1995V18.8565C31.6339 19.7183 32.3325 20.4169 33.1943 20.4169C34.0561 20.4169 34.7548 19.7183 34.7548 18.8565V10.1995C34.7548 7.6182 36.8548 5.51813 39.4361 5.51813H48.2449C49.1068 5.51813 49.8054 4.81952 49.8054 3.95767C49.8054 3.09583 49.1068 2.39722 48.2449 2.39722Z" fill="black"/>
<path d="M33.5636 69.0421H31.379C30.5172 69.0421 29.8185 69.7407 29.8185 70.6026C29.8185 71.4644 30.5172 72.163 31.379 72.163H33.5636C34.4255 72.163 35.1241 71.4644 35.1241 70.6026C35.1241 69.7407 34.4255 69.0421 33.5636 69.0421Z" fill="black"/>
<path d="M20.9916 43.2137C20.7014 42.9234 20.3004 42.7565 19.8884 42.7565C19.478 42.7565 19.0754 42.9234 18.7852 43.2137C18.4949 43.5039 18.3279 43.9065 18.3279 44.3169C18.3279 44.7273 18.4949 45.1299 18.7852 45.4202C19.0754 45.7104 19.478 45.8774 19.8884 45.8774C20.3004 45.8774 20.7014 45.7104 20.9916 45.4202C21.2834 45.1299 21.4489 44.7273 21.4489 44.3169C21.4489 43.9065 21.2834 43.5039 20.9916 43.2137Z" fill="black"/>
<path d="M28.3787 43.2137C28.0885 42.9234 27.6859 42.7565 27.2755 42.7565C26.8635 42.7565 26.4625 42.9234 26.1722 43.2137C25.8804 43.5039 25.715 43.905 25.715 44.3169C25.715 44.7273 25.8804 45.1299 26.1722 45.4202C26.4625 45.7104 26.8651 45.8774 27.2755 45.8774C27.6859 45.8774 28.0885 45.7104 28.3787 45.4202C28.669 45.1299 28.8359 44.7273 28.8359 44.3169C28.8359 43.9065 28.669 43.5039 28.3787 43.2137Z" fill="black"/>
<path d="M59.7101 16.3622C59.5132 13.5059 57.2107 11.2036 54.3545 11.0067C52.7353 10.8946 51.1908 11.4416 50.008 12.5456C48.8418 13.6342 48.1729 15.1734 48.1729 16.7683C48.1729 17.6302 48.8715 18.3288 49.7333 18.3288C50.5952 18.3288 51.2938 17.6302 51.2938 16.7683C51.2938 16.0245 51.5934 15.3349 52.1377 14.827C52.6812 14.3197 53.3912 14.0692 54.1399 14.1201C55.4501 14.2104 56.5063 15.2666 56.5967 16.5769C56.688 17.9009 55.8197 19.071 54.532 19.359C53.2696 19.6416 52.388 20.7389 52.388 22.0277V25.1595C52.388 26.0214 53.0866 26.72 53.9484 26.72C54.8103 26.72 55.5089 26.0214 55.5089 25.1595V22.3306C58.1489 21.5964 59.9011 19.1342 59.7101 16.3622Z" fill="black"/>
<path d="M55.0517 29.2119C54.7615 28.9216 54.3589 28.7562 53.9485 28.7562C53.5381 28.7562 53.1355 28.9216 52.8452 29.2119C52.555 29.5037 52.388 29.9047 52.388 30.3167C52.388 30.7271 52.555 31.1297 52.8452 31.4199C53.1355 31.7102 53.5381 31.8771 53.9485 31.8771C54.3589 31.8771 54.7615 31.7102 55.0517 31.4199C55.3419 31.1297 55.5089 30.7271 55.5089 30.3167C55.5089 29.9047 55.3419 29.5037 55.0517 29.2119Z" fill="black"/>
</svg>
