<svg width="31" height="31" viewBox="0 0 31 31" fill="none" xmlns="http://www.w3.org/2000/svg">
<path d="M30.189 3.71777C29.985 3.67032 29.7707 3.73193 29.6234 3.88065L27.1181 6.40578L25.917 6.40578L24.5949 5.03593V3.81809L27.0643 1.31184C27.2104 1.1636 27.2699 0.950435 27.2215 0.747659C27.1733 0.54512 27.0241 0.381766 26.8268 0.315197C26.2064 0.106048 25.5573 5.73323e-05 24.897 5.73323e-05C22.9287 5.73323e-05 21.1406 0.917859 19.991 2.51811C18.915 4.01615 18.5833 5.85198 19.0585 7.60898L14.6072 12.0604L7.19109 4.62731L7.19109 3.16845C7.19109 2.95624 7.07967 2.75936 6.89767 2.6503L2.62475 0.0862192C2.3868 -0.0565971 2.08252 -0.0190635 1.88659 0.177102L0.177517 1.88594C-0.0184127 2.08211 -0.0559462 2.38639 0.086634 2.62434L2.65025 6.89726C2.75931 7.07926 2.95594 7.19044 3.16816 7.19068L4.62654 7.19115L12.0433 14.6242L7.60892 19.0586C5.85193 18.5836 4.01514 18.9158 2.5164 19.9925C0.917093 21.1414 0 22.929 0 24.8973C0 25.5573 0.105991 26.2067 0.31514 26.8269C0.381945 27.0254 0.546951 27.1753 0.750907 27.2225C0.955099 27.2699 1.16921 27.2083 1.31674 27.0596L3.82181 24.5347H5.02949L6.40549 25.9107L6.40549 27.1184L3.88059 29.6235C3.73187 29.771 3.67026 29.9851 3.71771 30.1893C3.76492 30.3933 3.91482 30.5583 4.11335 30.6251C4.73347 30.8342 5.38288 30.9402 6.0429 30.9402C8.01117 30.9402 9.79861 30.0229 10.9478 28.4236C12.0244 26.9248 12.3566 25.0883 11.8816 23.3313L15.443 19.7698L16.2589 20.656L15.8845 21.0302C15.6484 21.2662 15.6484 21.6489 15.8845 21.8849C16.1205 22.1208 16.503 22.1208 16.7392 21.8849L17.0782 21.546L24.7327 29.8605C24.7384 29.8666 24.7443 29.8725 24.7502 29.8784C26.1665 31.2948 28.4613 31.2952 29.8783 29.8782C31.2914 28.4644 31.2914 26.164 29.8783 24.7502C29.8722 24.7441 29.8658 24.7382 29.8595 24.7323L21.532 17.0925L21.8672 16.7572C22.1032 16.5214 22.1032 16.1388 21.8672 15.9027C21.6311 15.6667 21.2487 15.6667 21.0124 15.9027L20.6406 16.2747L19.7528 15.4599L23.3315 11.8812C23.8402 12.0172 24.3652 12.0861 24.897 12.0861C28.2292 12.0861 30.9399 9.37518 30.9399 6.04319C30.9399 5.38293 30.8339 4.73377 30.6248 4.1134C30.558 3.91488 30.393 3.76498 30.189 3.71777ZM5.30498 6.16004C5.19167 6.0465 5.03799 5.98866 4.87747 5.98866L3.51068 5.98819L1.36584 2.40716L2.40758 1.36543L5.98247 3.51074L5.98247 4.87753C5.98247 5.03758 6.04597 5.19102 6.15904 5.30433L13.7526 12.9151L12.8978 13.7697L5.30498 6.16004ZM20.6765 17.9479L29.0323 25.6135C29.9657 26.5568 29.9629 28.0841 29.0236 29.0239C28.0822 29.9653 26.5582 29.9681 25.613 29.0321L17.9335 20.6905L20.6765 17.9479ZM19.7851 17.13L17.1141 19.8005L16.2983 18.9144L18.8973 16.3151L19.7851 17.13ZM24.897 10.8775C24.3685 10.8775 23.8487 10.7927 23.3525 10.6256C23.1351 10.5526 22.8947 10.6088 22.7323 10.771C19.7027 13.8006 13.1747 20.3284 10.7709 22.7324C10.6085 22.8948 10.5521 23.1351 10.6255 23.3528C11.1279 24.8444 10.8876 26.4355 9.96598 27.7185C9.047 28.9977 7.61695 29.7316 6.0429 29.7316C5.86609 29.7316 5.69023 29.7219 5.51601 29.7033L7.43542 27.7987C7.54967 27.6854 7.61411 27.531 7.61411 27.3698L7.61411 25.6603C7.61411 25.5 7.55038 25.3463 7.43707 25.233L5.70699 23.5029C5.59368 23.3896 5.44 23.3259 5.27972 23.3259L3.57017 23.3259C3.40894 23.3259 3.25456 23.3903 3.14101 23.5046L1.23672 25.424C1.21783 25.2497 1.20839 25.0739 1.20839 24.8971C1.20839 23.3228 1.94207 21.893 3.22151 20.974C4.50426 20.0524 6.09554 19.8119 7.58744 20.3144C7.80485 20.3879 8.04516 20.3314 8.20757 20.169C8.24085 20.136 20.1605 8.21613 20.169 8.20763C20.3314 8.04522 20.3876 7.80515 20.3144 7.5875C19.8118 6.09583 20.0516 4.50526 20.9725 3.22322C21.8922 1.94283 23.3225 1.20868 24.8968 1.20868C25.079 1.20868 25.2601 1.21884 25.4395 1.23866L23.56 3.14627C23.4485 3.25934 23.3862 3.4116 23.3862 3.57023L23.3862 5.27978C23.3862 5.43652 23.4469 5.58689 23.5557 5.69949L25.2254 7.42957C25.3391 7.5476 25.4961 7.61417 25.6602 7.61417L27.3697 7.61417C27.5307 7.61417 27.6851 7.54996 27.7987 7.43548L29.703 5.51631C29.7218 5.69052 29.7313 5.86638 29.7313 6.04319C29.7313 8.70878 27.5626 10.8775 24.897 10.8775Z" fill="black"/>
</svg>
