<svg width="127" height="102" viewBox="0 0 127 102" fill="none" xmlns="http://www.w3.org/2000/svg">
<path d="M116.192 60.1183V41.2753C116.19 40.313 115.887 39.3778 115.328 38.6132C114.769 37.8486 113.986 37.2967 113.099 37.0421L91.8443 30.9794C91.4852 30.8767 91.1145 30.8248 90.7423 30.8251H80.5357V16.3774L84.1161 12.6327L81.1502 9.53061L76.9554 13.9181C76.7605 14.1217 76.606 14.3635 76.5005 14.6296C76.3951 14.8957 76.3408 15.181 76.3409 15.4691V30.8251H72.146V22.9586C72.1426 21.7957 71.701 20.6811 70.9171 19.8565L64.6248 13.2754H65.8537C66.1292 13.2755 66.402 13.2189 66.6566 13.1087C66.9111 12.9985 67.1424 12.8369 67.3372 12.6332C67.532 12.4295 67.6865 12.1876 67.7918 11.9213C67.8972 11.6551 67.9513 11.3698 67.9512 11.0816V7.86818C67.9517 7.14578 67.7815 6.43445 67.4555 5.79753C67.1296 5.16062 66.6582 4.61789 66.0831 4.21769L61.2533 0.849992C60.5646 0.36879 59.7547 0.112302 58.9265 0.113039H32.2948C31.1827 0.114551 30.1166 0.577284 29.3302 1.39976C28.5438 2.22224 28.1014 3.33732 28.1 4.50048V11.0816C28.0998 11.3698 28.154 11.6551 28.2593 11.9213C28.3647 12.1876 28.5191 12.4295 28.7139 12.6332C28.9087 12.8369 29.14 12.9985 29.3946 13.1087C29.6491 13.2189 29.9219 13.2755 30.1974 13.2754H34.3923V30.8251H22.969C21.829 30.8256 20.7104 31.1499 19.7328 31.7635L12.275 36.4401C11.3463 37.0285 10.5778 37.8567 10.0434 38.8452C9.50894 39.8338 9.22646 40.9494 9.22309 42.0851V48.859C6.04357 52.2567 3.66212 56.3805 2.26651 60.9052C0.870892 65.4298 0.499264 70.2317 1.18092 74.9322C1.86258 79.6328 3.57889 84.1034 6.19453 87.9918C8.81018 91.8801 12.2536 95.0798 16.2535 97.3386C20.2533 99.5974 24.7001 100.854 29.2433 101.008C33.7865 101.162 38.3019 100.211 42.4335 98.2286C46.5651 96.2462 50.2 93.2872 53.0516 89.5847C55.9031 85.8822 57.8933 81.5376 58.8654 76.8932H84.837C84.7681 77.6151 84.7306 78.3465 84.7306 79.087C84.7256 82.939 85.6906 86.7245 87.5283 90.0627C89.366 93.401 92.0117 96.1742 95.1994 98.1036C98.3871 100.033 102.004 101.05 105.687 101.054C109.37 101.057 112.989 100.046 116.18 98.1221C119.371 96.1983 122.021 93.4297 123.864 90.0947C125.707 86.7597 126.678 82.9759 126.679 79.1239C126.68 75.2719 125.712 71.4874 123.871 68.1511C122.03 64.8148 119.382 62.0443 116.192 60.1183ZM111.997 50.5686H106.573L103.607 47.4665L103.603 46.1812H111.997V50.5686ZM90.7423 35.2126L111.997 41.2753V41.7937H103.607C102.495 41.7952 101.429 42.258 100.643 43.0804C99.8565 43.9029 99.4141 45.018 99.4126 46.1812V47.4665C99.4161 48.6294 99.8577 49.744 100.642 50.5686L103.607 53.6707C104.396 54.4906 105.462 54.9524 106.573 54.956H111.997V58.1617C107.301 56.6134 102.234 56.8478 97.6867 58.8237L93.1203 54.0477C92.3319 53.2278 91.2663 52.7659 90.1544 52.7623H86.828V49.2832C86.8246 48.1203 86.383 47.0058 85.5991 46.1812L82.6332 43.0791C82.0571 42.4822 81.329 42.0713 80.5357 41.8955V35.2126H90.7423ZM64.6248 28.6314H67.9512V42.4454L60.3213 33.1324L64.6248 28.6314ZM72.146 46.1812H79.6673L82.6332 49.2832V63.7309H72.146V46.1812ZM76.3409 35.2126V41.7937H72.146V35.2126H76.3409ZM32.2948 4.50048H58.9265L63.7563 7.86818V8.88792H32.2948V4.50048ZM38.5871 13.2754H58.693L67.9512 22.9586V24.244H64.6248C63.5129 24.2476 62.4473 24.7094 61.6589 25.5293L60.6102 26.6262L58.3325 24.244L61.0444 21.4075L58.0785 18.3055L49.6888 27.0804L52.6547 30.1824L55.3666 27.346L57.6443 29.7283L57.3554 30.0303C56.6118 30.814 56.1766 31.8612 56.136 32.9645C56.0954 34.0679 56.4524 35.1469 57.1363 35.9881L65.4899 46.1812H59.5614V50.5686H67.9512V54.956H55.5884C55.5169 54.8271 55.4398 54.7023 55.3666 54.5746V44.1417C55.3678 43.058 55.1125 41.9909 54.6236 41.0355C54.1347 40.08 53.4273 39.266 52.5645 38.666L42.9049 31.9305C41.872 31.2083 40.6571 30.8235 39.4146 30.8251H38.5871V13.2754ZM14.4359 40.202L21.8917 35.5253C22.2168 35.3204 22.5894 35.2122 22.969 35.2126H39.4146C39.8288 35.2117 40.2339 35.34 40.578 35.581L50.2377 42.3164C50.5255 42.5163 50.7614 42.7876 50.9244 43.1061C51.0874 43.4246 51.1723 43.7804 51.1717 44.1417V48.859C46.3266 43.6499 39.8664 40.4152 32.9485 39.7345C26.0306 39.0538 19.107 40.9715 13.418 45.1441V42.0851C13.4191 41.7063 13.5133 41.3341 13.6916 41.0043C13.8699 40.6746 14.1262 40.3983 14.4359 40.202ZM30.1974 96.6367C25.2194 96.6367 20.3532 95.0928 16.2142 92.2002C12.0751 89.3076 8.84912 85.1963 6.94412 80.3861C5.03912 75.5759 4.54069 70.2829 5.51185 65.1764C6.48301 60.0699 8.88014 55.3793 12.4001 51.6977C15.9201 48.0162 20.4048 45.509 25.2871 44.4933C30.1695 43.4775 35.2302 43.9988 39.8292 45.9913C44.4283 47.9837 48.3592 51.3578 51.1248 55.6869C53.8904 60.016 55.3666 65.1056 55.3666 70.3121C55.3593 77.2915 52.7052 83.9828 47.9866 88.918C43.2681 93.8532 36.8704 96.6291 30.1974 96.6367ZM59.4552 72.5058C59.5047 71.7782 59.5614 71.0525 59.5614 70.3121C59.5555 66.5603 58.8878 62.8419 57.5919 59.3435H67.9512V63.7309C67.9526 64.8941 68.395 66.0092 69.1814 66.8316C69.9678 67.6541 71.0339 68.1168 72.146 68.1184H82.6332C83.7453 68.1168 84.8114 67.6541 85.5978 66.8316C86.3842 66.0092 86.8266 64.8941 86.828 63.7309V57.1498H90.1544L93.8464 61.0113C89.9829 63.7875 87.1154 67.8326 85.6982 72.5058H59.4552ZM105.705 96.6367C102.386 96.6367 99.1421 95.6074 96.3828 93.6791C93.6234 91.7507 91.4727 89.0098 90.2027 85.803C88.9327 82.5962 88.6004 79.0675 89.2479 75.6632C89.8953 72.2589 91.4934 69.1318 93.8401 66.6774C96.1867 64.223 99.1765 62.5516 102.431 61.8744C105.686 61.1973 109.06 61.5448 112.126 62.8731C115.192 64.2014 117.813 66.4508 119.657 69.3368C121.5 72.2229 122.484 75.6159 122.484 79.087C122.479 83.7398 120.71 88.2006 117.564 91.4906C114.419 94.7807 110.154 96.6314 105.705 96.6367Z" fill="black"/>
<path d="M30.1974 72.5057C31.3558 72.5057 32.2948 71.5235 32.2948 70.3119C32.2948 69.1004 31.3558 68.1182 30.1974 68.1182C29.039 68.1182 28.0999 69.1004 28.0999 70.3119C28.0999 71.5235 29.039 72.5057 30.1974 72.5057Z" fill="black"/>
<path d="M30.1975 52.7621C26.8788 52.7621 23.6347 53.7914 20.8753 55.7198C18.116 57.6482 15.9653 60.3891 14.6953 63.5959C13.4253 66.8027 13.093 70.3314 13.7404 73.7357C14.3879 77.14 15.986 80.2671 18.3326 82.7215C20.6793 85.1758 23.6691 86.8473 26.924 87.5245C30.1789 88.2016 33.5527 87.8541 36.6187 86.5258C39.6847 85.1975 42.3053 82.9481 44.1491 80.062C45.9928 77.176 46.9769 73.7829 46.9769 70.3119C46.9718 65.6591 45.2024 61.1983 42.0567 57.9082C38.9111 54.6182 34.6461 52.7675 30.1975 52.7621ZM30.1975 83.4742C27.7085 83.4742 25.2754 82.7023 23.2059 81.256C21.1363 79.8097 19.5233 77.754 18.5708 75.3489C17.6183 72.9438 17.3691 70.2973 17.8547 67.7441C18.3403 65.1908 19.5389 62.8455 21.2988 61.0047C23.0588 59.164 25.3012 57.9104 27.7424 57.4025C30.1835 56.8946 32.7139 57.1553 35.0134 58.1515C37.3129 59.1477 39.2784 60.8348 40.6612 62.9993C42.044 65.1638 42.7821 67.7086 42.7821 70.3119C42.7784 73.8016 41.4514 77.1473 39.0921 79.6149C36.7328 82.0825 33.534 83.4704 30.1975 83.4742Z" fill="black"/>
<path d="M105.705 68.1182C103.631 68.1182 101.603 68.7615 99.8785 69.9668C98.1539 71.172 96.8097 72.8851 96.0159 74.8893C95.2222 76.8936 95.0145 79.099 95.4192 81.2267C95.8238 83.3544 96.8226 85.3088 98.2893 86.8428C99.7559 88.3768 101.625 89.4214 103.659 89.8447C105.693 90.2679 107.802 90.0507 109.718 89.2205C111.634 88.3903 113.272 86.9844 114.425 85.1807C115.577 83.3769 116.192 81.2562 116.192 79.0868C116.189 76.1788 115.083 73.3909 113.117 71.3346C111.151 69.2784 108.485 68.1216 105.705 68.1182ZM105.705 85.668C104.46 85.668 103.244 85.282 102.209 84.5589C101.174 83.8357 100.368 82.8079 99.8915 81.6053C99.4152 80.4028 99.2906 79.0795 99.5334 77.8029C99.7762 76.5263 100.375 75.3536 101.255 74.4332C102.135 73.5129 103.257 72.8861 104.477 72.6321C105.698 72.3782 106.963 72.5085 108.113 73.0066C109.263 73.5047 110.245 74.3483 110.937 75.4305C111.628 76.5128 111.997 77.7852 111.997 79.0868C111.995 80.8317 111.332 82.5045 110.152 83.7383C108.972 84.9721 107.373 85.6661 105.705 85.668Z" fill="black"/>
<path d="M105.705 81.2806C106.863 81.2806 107.802 80.2984 107.802 79.0868C107.802 77.8753 106.863 76.8931 105.705 76.8931C104.547 76.8931 103.608 77.8753 103.608 79.0868C103.608 80.2984 104.547 81.2806 105.705 81.2806Z" fill="black"/>
</svg>
