<svg width="364" height="279" viewBox="0 0 364 279" fill="none" xmlns="http://www.w3.org/2000/svg">
<path d="M332.986 165.627V113.616C332.981 110.96 332.105 108.379 330.492 106.268C328.879 104.158 326.619 102.635 324.057 101.932L262.696 85.1974C261.659 84.914 260.589 84.7708 259.515 84.7717H230.049V44.893L240.385 34.5568L231.823 25.9944L219.713 38.1047C219.15 38.6667 218.704 39.3341 218.4 40.0687C218.095 40.8033 217.939 41.5907 217.939 42.3858V84.7717H205.829V63.0584C205.819 59.8486 204.544 56.7722 202.281 54.4961L184.115 36.3307H187.663C188.459 36.3312 189.246 36.1749 189.981 35.8707C190.716 35.5666 191.384 35.1206 191.946 34.5582C192.508 33.9959 192.954 33.3282 193.259 32.5933C193.563 31.8585 193.719 31.0709 193.719 30.2756V21.4058C193.72 19.4118 193.229 17.4484 192.288 15.6904C191.347 13.9324 189.986 12.4343 188.326 11.3297L174.382 2.03415C172.394 0.705931 170.056 -0.00203019 167.665 4.37293e-06H90.7815C87.5709 0.00417997 84.4931 1.28142 82.2229 3.55162C79.9527 5.82183 78.6754 8.89969 78.6712 12.1102V30.2756C78.6708 31.0709 78.8271 31.8585 79.1312 32.5933C79.4354 33.3282 79.8814 33.9959 80.4437 34.5582C81.0061 35.1206 81.6738 35.5666 82.4086 35.8707C83.1435 36.1749 83.9311 36.3312 84.7264 36.3307H96.8366V84.7717H63.8587C60.5673 84.7729 57.3381 85.6681 54.5158 87.3617L32.9858 100.27C30.3047 101.894 28.0862 104.18 26.5433 106.909C25.0004 109.637 24.1849 112.717 24.1752 115.851V134.549C14.9961 143.927 8.12109 155.31 4.09206 167.799C0.0630277 180.288 -1.00983 193.542 0.958061 206.516C2.92595 219.491 7.8808 231.831 15.432 242.563C22.9831 253.296 32.9242 262.128 44.4713 268.363C56.0185 274.597 68.856 278.064 81.9719 278.491C95.0878 278.917 108.123 276.291 120.051 270.819C131.979 265.347 142.472 257.18 150.705 246.96C158.937 236.741 164.682 224.748 167.489 211.929H242.467C242.268 213.922 242.159 215.941 242.159 217.984C242.145 228.617 244.931 239.065 250.236 248.28C255.541 257.494 263.18 265.149 272.382 270.474C281.585 275.8 292.027 278.608 302.66 278.617C313.292 278.626 323.739 275.835 332.951 270.525C342.162 265.215 349.813 257.573 355.134 248.368C360.455 239.163 363.258 228.719 363.262 218.086C363.265 207.454 360.469 197.008 355.155 187.799C349.84 178.59 342.194 170.943 332.986 165.627ZM320.876 139.268H305.218L296.656 130.705L296.644 127.158H320.876V139.268ZM259.515 96.8819L320.876 113.616V115.047H296.656C293.445 115.051 290.367 116.329 288.097 118.599C285.827 120.869 284.549 123.947 284.545 127.158V130.705C284.555 133.915 285.83 136.992 288.093 139.268L296.656 147.83C298.932 150.093 302.008 151.368 305.218 151.378H320.876V160.226C307.319 155.953 292.689 156.6 279.563 162.054L266.38 148.871C264.104 146.608 261.027 145.333 257.818 145.323H248.215V135.72C248.205 132.51 246.93 129.434 244.667 127.158L236.104 118.595C234.441 116.948 232.339 115.813 230.049 115.328V96.8819H259.515ZM184.115 78.7166H193.719V116.846L171.692 91.1402L184.115 78.7166ZM205.829 127.158H227.542L236.104 135.72V175.598H205.829V127.158ZM217.939 96.8819V115.047H205.829V96.8819H217.939ZM90.7815 12.1102H167.665L181.608 21.4058V24.2205H90.7815V12.1102ZM108.947 36.3307H166.991L193.719 63.0584V66.6063H184.115C180.906 66.6163 177.829 67.8911 175.553 70.1542L172.526 73.1818L165.95 66.6063L173.779 58.7772L165.217 50.2149L140.996 74.4354L149.559 82.9977L157.388 75.1686L163.963 81.7441L163.13 82.5779C160.983 84.741 159.726 87.6315 159.609 90.6769C159.492 93.7224 160.522 96.7008 162.497 99.0225L186.613 127.158H169.498V139.268H193.719V151.378H158.028C157.822 151.022 157.599 150.678 157.388 150.325V121.528C157.391 118.537 156.654 115.591 155.243 112.954C153.831 110.317 151.789 108.07 149.299 106.414L121.412 87.8229C118.43 85.8293 114.923 84.7672 111.336 84.7717H108.947V36.3307ZM39.2243 110.654L60.7483 97.7452C61.6871 97.1795 62.7626 96.881 63.8587 96.8819H111.336C112.532 96.8795 113.701 97.2336 114.694 97.899L142.581 116.49C143.412 117.042 144.093 117.791 144.563 118.67C145.034 119.549 145.279 120.531 145.278 121.528V134.549C131.29 120.171 112.64 111.242 92.6686 109.363C72.6971 107.484 52.7092 112.778 36.2854 124.295V115.851C36.2887 114.806 36.5607 113.779 37.0754 112.868C37.59 111.958 38.33 111.196 39.2243 110.654ZM84.7264 266.425C70.3553 266.425 56.307 262.164 44.3578 254.18C32.4087 246.195 23.0955 234.847 17.596 221.57C12.0964 208.293 10.6575 193.683 13.4611 179.588C16.2648 165.493 23.1851 152.546 33.347 142.384C43.5089 132.223 56.4559 125.302 70.5508 122.499C84.6458 119.695 99.2556 121.134 112.533 126.633C125.81 132.133 137.158 141.446 145.142 153.395C153.126 165.344 157.388 179.393 157.388 193.764C157.367 213.028 149.705 231.498 136.083 245.12C122.46 258.742 103.991 266.404 84.7264 266.425ZM169.191 199.819C169.334 197.811 169.498 195.808 169.498 193.764C169.481 183.408 167.553 173.144 163.812 163.488H193.719V175.598C193.723 178.809 195 181.887 197.27 184.157C199.54 186.427 202.618 187.705 205.829 187.709H236.104C239.315 187.705 242.393 186.427 244.663 184.157C246.933 181.887 248.21 178.809 248.215 175.598V157.433H257.818L268.476 168.092C257.322 175.755 249.044 186.92 244.953 199.819H169.191ZM302.711 266.425C293.13 266.425 283.764 263.584 275.798 258.261C267.832 252.939 261.623 245.373 257.957 236.522C254.291 227.67 253.331 217.931 255.2 208.534C257.07 199.137 261.683 190.506 268.458 183.731C275.232 176.957 283.864 172.343 293.26 170.474C302.657 168.605 312.397 169.564 321.248 173.231C330.1 176.897 337.665 183.106 342.988 191.072C348.311 199.038 351.152 208.404 351.152 217.984C351.137 230.827 346.029 243.14 336.947 252.221C327.866 261.302 315.553 266.411 302.711 266.425Z" fill="#FFBC42"/>
<path d="M84.7264 199.541C88.0705 199.541 90.7815 196.83 90.7815 193.486C90.7815 190.142 88.0705 187.431 84.7264 187.431C81.3822 187.431 78.6713 190.142 78.6713 193.486C78.6713 196.83 81.3822 199.541 84.7264 199.541Z" fill="#FFBC42"/>
<path d="M302.711 223.762C306.055 223.762 308.766 221.051 308.766 217.706C308.766 214.362 306.055 211.651 302.711 211.651C299.366 211.651 296.656 214.362 296.656 217.706C296.656 221.051 299.366 223.762 302.711 223.762Z" fill="#FFBC42"/>
<path d="M84.7264 145.045C75.1457 145.045 65.7801 147.886 57.814 153.209C49.8479 158.532 43.6391 166.097 39.9728 174.948C36.3064 183.8 35.3471 193.54 37.2162 202.936C39.0853 212.333 43.6989 220.964 50.4734 227.739C57.248 234.514 65.8794 239.127 75.276 240.996C84.6726 242.865 94.4125 241.906 103.264 238.24C112.115 234.573 119.681 228.364 125.004 220.398C130.326 212.432 133.167 203.067 133.167 193.486C133.153 180.643 128.044 168.331 118.963 159.249C109.882 150.168 97.5692 145.06 84.7264 145.045ZM84.7264 229.817C77.5408 229.817 70.5167 227.686 64.5421 223.694C58.5675 219.702 53.911 214.028 51.1612 207.389C48.4114 200.751 47.6919 193.446 49.0937 186.398C50.4956 179.351 53.9557 172.877 59.0367 167.796C64.1176 162.715 70.5911 159.255 77.6386 157.853C84.6861 156.452 91.991 157.171 98.6295 159.921C105.268 162.671 110.942 167.327 114.934 173.302C118.926 179.276 121.057 186.3 121.057 193.486C121.047 203.118 117.215 212.353 110.404 219.164C103.593 225.975 94.3586 229.806 84.7264 229.817Z" fill="#FFBC42"/>
<path d="M302.711 187.431C296.723 187.431 290.869 189.206 285.89 192.533C280.912 195.86 277.031 200.588 274.74 206.12C272.448 211.653 271.849 217.74 273.017 223.613C274.185 229.486 277.068 234.88 281.303 239.115C285.537 243.349 290.931 246.232 296.804 247.4C302.677 248.568 308.765 247.969 314.297 245.677C319.829 243.386 324.557 239.505 327.884 234.527C331.211 229.548 332.986 223.694 332.986 217.706C332.977 209.68 329.784 201.985 324.108 196.309C318.433 190.633 310.737 187.44 302.711 187.431ZM302.711 235.872C299.118 235.872 295.606 234.806 292.619 232.81C289.631 230.814 287.303 227.977 285.928 224.658C284.553 221.339 284.193 217.686 284.894 214.163C285.595 210.639 287.325 207.402 289.866 204.862C292.406 202.321 295.643 200.591 299.167 199.89C302.691 199.189 306.343 199.549 309.662 200.924C312.982 202.299 315.819 204.627 317.815 207.614C319.811 210.602 320.876 214.114 320.876 217.706C320.871 222.523 318.955 227.14 315.55 230.545C312.144 233.951 307.527 235.867 302.711 235.872Z" fill="#FFBC42"/>
<rect width="27" height="9" transform="matrix(-4.37114e-08 1 1 4.37114e-08 76 47.2778)" fill="#FFBC42"/>
<rect width="27.4367" height="9" transform="matrix(1 0 0 -1 237.469 74.7118)" fill="#FFBC42"/>
</svg>
