<svg width="103" height="74" viewBox="0 0 103 74" fill="none" xmlns="http://www.w3.org/2000/svg">
<path d="M24.3033 52.8478C18.6973 52.8478 14.1384 57.4067 14.1384 63.0127C14.1384 68.6188 18.6973 73.1777 24.3033 73.1777C29.9093 73.1777 34.4683 68.6188 34.4683 63.0127C34.4683 57.4067 29.9091 52.8478 24.3033 52.8478ZM24.3033 69.7893C20.5659 69.7893 17.5268 66.75 17.5268 63.0127C17.5268 59.2753 20.5661 56.2362 24.3033 56.2362C28.0405 56.2362 31.0799 59.2755 31.0799 63.0127C31.0799 66.75 28.0405 69.7893 24.3033 69.7893Z" fill="black"/>
<path d="M81.9047 52.8478C76.2987 52.8478 71.7397 57.4067 71.7397 63.0127C71.7397 68.6188 76.2987 73.1777 81.9047 73.1777C87.5107 73.1777 92.0697 68.6188 92.0697 63.0127C92.0697 57.4067 87.5107 52.8478 81.9047 52.8478ZM81.9047 69.7893C78.1673 69.7893 75.1281 66.75 75.1281 63.0127C75.1281 59.2753 78.1675 56.2362 81.9047 56.2362C85.6421 56.2362 88.6813 59.2755 88.6813 63.0127C88.6813 66.75 85.6421 69.7893 81.9047 69.7893Z" fill="black"/>
<path d="M101.965 43.4607L86.7176 19.7424C86.4059 19.2578 85.8689 18.9647 85.2927 18.9647H66.6571C65.7202 18.9647 64.963 19.7237 64.963 20.6588V63.0128C64.963 63.9496 65.7202 64.7068 66.6571 64.7068H73.4337V61.3185H68.3512V22.3531H84.3678L98.8461 44.8752V61.3189H90.3752V64.707H100.54C101.477 64.707 102.234 63.9498 102.234 63.013V44.3771C102.234 44.0535 102.141 43.7333 101.965 43.4607Z" fill="black"/>
<path d="M75.1281 40.9887V29.1296H88.6815V25.7412H73.4341C72.4972 25.7412 71.74 26.5002 71.74 27.4353V42.6828C71.74 43.6196 72.4972 44.3769 73.4341 44.3769H98.8465V40.9885H75.1281V40.9887Z" fill="black"/>
<path d="M66.6571 7.10571H2.27899C1.3439 7.10571 0.5849 7.86471 0.5849 8.79981V63.013C0.5849 63.9499 1.3439 64.7071 2.27899 64.7071H15.8323V61.3187H3.97329V10.4939H64.9631V61.3187H32.7739V64.7071H66.6571C67.594 64.7071 68.3512 63.9499 68.3512 63.013V8.79981C68.3512 7.86471 67.594 7.10571 66.6571 7.10571Z" fill="black"/>
<path d="M12.4439 54.5418H2.2789V57.9302H12.4439V54.5418Z" fill="black"/>
<path d="M64.9631 54.5418H36.1623V57.9302H64.9631V54.5418Z" fill="black"/>
<path d="M100.54 54.5418H93.7637V57.9302H100.54V54.5418Z" fill="black"/>
<path d="M66.6571 13.882H7.36139V17.2703H66.6571V13.882Z" fill="black"/>
<path d="M25.9972 61.3186H22.6089V64.707H25.9972V61.3186Z" fill="black"/>
<path d="M83.5988 61.3186H80.2104V64.707H83.5988V61.3186Z" fill="black"/>
<path d="M31.0797 0.328735H7.36139V3.71712H31.0797V0.328735Z" fill="black"/>
<path d="M3.97329 0.328796H0.5849V3.71718H3.97329V0.328796Z" fill="black"/>
</svg>
