<svg width="75" height="83" viewBox="0 0 75 83" fill="none" xmlns="http://www.w3.org/2000/svg">
<path d="M55.8398 36.7747V2.15337C55.8397 1.80021 55.6994 1.46153 55.4497 1.21181C55.2 0.962092 54.8613 0.821795 54.5082 0.821777H3.90776C3.55461 0.821795 3.21592 0.962092 2.9662 1.21181C2.71649 1.46153 2.57619 1.80021 2.57617 2.15337V72.7276C2.57619 73.0808 2.71649 73.4194 2.9662 73.6692C3.21592 73.9189 3.55461 74.0592 3.90776 74.0592H43.8554V71.396H5.23935V3.48496H53.1766V36.7747H55.8398Z" fill="#FFBC42"/>
<path d="M34.5344 8.81177H39.8608V11.4749H34.5344V8.81177Z" fill="#FFBC42"/>
<path d="M18.5552 8.81177H31.8711V11.4749H18.5552V8.81177Z" fill="#FFBC42"/>
<path d="M13.2289 20.796H25.2132V23.4592H13.2289V20.796Z" fill="#FFBC42"/>
<path d="M27.8765 20.796H50.5135V23.4592H27.8765V20.796Z" fill="#FFBC42"/>
<path d="M45.1871 26.1222H50.5135V28.7854H45.1871V26.1222Z" fill="#FFBC42"/>
<path d="M21.2184 26.1222H42.5238V28.7854H21.2184V26.1222Z" fill="#FFBC42"/>
<path d="M7.90277 26.1222H18.5555V28.7854H7.90277V26.1222Z" fill="#FFBC42"/>
<path d="M31.8711 31.4487H42.5238V34.1119H31.8711V31.4487Z" fill="#FFBC42"/>
<path d="M7.90277 31.4487H29.2082V34.1119H7.90277V31.4487Z" fill="#FFBC42"/>
<path d="M13.2289 42.1013H25.2132V44.7645H13.2289V42.1013Z" fill="#FFBC42"/>
<path d="M27.8765 42.1013H42.524V44.7645H27.8765V42.1013Z" fill="#FFBC42"/>
<path d="M21.2184 47.4279H37.1975V50.091H21.2184V47.4279Z" fill="#FFBC42"/>
<path d="M7.90277 47.4279H18.5555V50.091H7.90277V47.4279Z" fill="#FFBC42"/>
<path d="M26.5449 52.7542H33.2029V55.4173H26.5449V52.7542Z" fill="#FFBC42"/>
<path d="M7.90277 52.7542H23.8818V55.4173H7.90277V52.7542Z" fill="#FFBC42"/>
<path d="M15.8922 36.7748H30.5397V39.438H15.8922V36.7748Z" fill="#FFBC42"/>
<path d="M10.5658 36.7748H13.229V39.438H10.5658V36.7748Z" fill="#FFBC42"/>
<path d="M15.8922 15.4697H30.5397V18.1329H15.8922V15.4697Z" fill="#FFBC42"/>
<path d="M10.5658 15.4697H13.229V18.1329H10.5658V15.4697Z" fill="#FFBC42"/>
<path d="M33.2028 59.4122H41.1924V62.0754H33.2028V59.4122Z" fill="#FFBC42"/>
<path d="M30.5396 64.738H43.8555V67.4012H30.5396V64.738Z" fill="#FFBC42"/>
<path d="M74.4422 46.2639L73.1106 40.9375C73.0669 40.7627 72.9882 40.5985 72.8792 40.455C72.7702 40.3115 72.6332 40.1916 72.4765 40.1026C72.3198 40.0136 72.1466 39.9574 71.9675 39.9373C71.7885 39.9171 71.6071 39.9336 71.4346 39.9856L64.5186 42.0704C63.3155 40.5444 61.6584 39.4405 59.7867 38.9183C57.9149 38.3962 55.9257 38.4828 54.1064 39.1656L48.5169 41.2616C47.9307 41.4798 47.4033 41.8314 46.9767 42.2888C46.55 42.7461 46.2357 43.2965 46.0587 43.8964C45.8817 44.4963 45.8469 45.1292 45.957 45.7449C46.0671 46.3606 46.3191 46.9422 46.693 47.4436L42.1396 48.8162C41.9292 48.8795 41.7377 48.994 41.5822 49.1494L36.2559 54.4758C36.0697 54.662 35.9429 54.8993 35.8915 55.1576C35.8402 55.4159 35.8666 55.6836 35.9673 55.9269C36.0681 56.1702 36.2388 56.3782 36.4578 56.5245C36.6767 56.6708 36.9342 56.749 37.1975 56.749H45.1871C45.3231 56.749 45.4583 56.7282 45.5881 56.6872L48.1602 55.875C48.0188 56.68 48.0732 57.5072 48.3189 58.2868C48.5646 59.0664 48.9943 59.7753 49.5718 60.3538L51.2933 62.0753H50.5134C50.1603 62.0754 49.8216 62.2157 49.5719 62.4654C49.3222 62.7151 49.1819 63.0538 49.1818 63.4069V67.4017H47.8503C47.4971 67.4017 47.1584 67.542 46.9087 67.7917C46.659 68.0415 46.5187 68.3801 46.5187 68.7333V80.7176H49.1818V70.0649H63.8293V80.7176H66.4925V68.7333C66.4925 68.3801 66.3522 68.0415 66.1025 67.7917C65.8528 67.542 65.5141 67.4017 65.1609 67.4017V63.4069C65.1609 63.0538 65.0206 62.7151 64.7709 62.4654C64.5212 62.2157 64.1825 62.0754 63.8293 62.0753H63.3207L66.3519 56.013C66.4444 55.8281 66.4925 55.6241 66.4925 55.4174V50.0858L73.5515 47.8567C73.8749 47.7546 74.1471 47.5329 74.3127 47.2369C74.4782 46.9409 74.5245 46.5929 74.4422 46.2639V46.2639ZM49.452 43.7551L55.0414 41.659C56.158 41.2397 57.3686 41.136 58.5404 41.3592C59.7121 41.5825 60.7998 42.1242 61.684 42.9248L51.6389 45.9528C50.7461 45.5251 49.7201 45.4686 48.7858 45.7957C48.6722 45.6235 48.599 45.4279 48.5715 45.2234C48.544 45.0189 48.563 44.8109 48.627 44.6148C48.691 44.4187 48.7985 44.2396 48.9413 44.0907C49.0841 43.9419 49.2587 43.8271 49.452 43.7551H49.452ZM44.9818 54.0858H40.4122L43.2287 51.2693L46.3738 50.3213C46.497 50.7909 46.7097 51.2322 47.0003 51.6211L48.1083 53.0985L44.9818 54.0858ZM51.845 67.4017V64.7385H62.4977V67.4017H51.845ZM63.8293 55.103L60.3432 62.0753H55.0599L51.4551 58.4705C50.9992 58.0136 50.7431 57.3945 50.7431 56.749C50.7431 56.1035 50.9992 55.4844 51.4551 55.0274C51.6817 54.8008 51.819 54.5 51.8417 54.1802C51.8644 53.8605 51.7711 53.5433 51.5788 53.2869L49.131 50.0233C48.9568 49.7911 48.8808 49.5 48.9191 49.2123C48.9574 48.9247 49.1071 48.6636 49.3359 48.4852C49.5648 48.3068 49.8545 48.2253 50.1428 48.2583C50.4311 48.2913 50.6949 48.4361 50.8775 48.6616L54.4055 53.0177L57.0278 56.2555L59.0974 54.5793L57.7055 52.8607L63.8293 50.9269V55.103ZM55.9042 50.6366L53.8288 48.0741L70.8659 42.9385L71.5547 45.6943L55.9042 50.6366Z" fill="#FFBC42"/>
<path d="M53.8398 38.7747V4.15337C53.8397 3.80021 53.6994 3.46153 53.4497 3.21181C53.2 2.96209 52.8613 2.82179 52.5082 2.82178H1.90776C1.55461 2.82179 1.21592 2.96209 0.966205 3.21181C0.716487 3.46153 0.576189 3.80021 0.576172 4.15337V74.7276C0.576189 75.0808 0.716487 75.4194 0.966205 75.6692C1.21592 75.9189 1.55461 76.0592 1.90776 76.0592H41.8554V73.396H3.23935V5.48496H51.1766V38.7747H53.8398Z" fill="black"/>
<path d="M32.5344 10.8118H37.8608V13.4749H32.5344V10.8118Z" fill="black"/>
<path d="M16.5552 10.8118H29.8711V13.4749H16.5552V10.8118Z" fill="black"/>
<path d="M11.2289 22.796H23.2132V25.4592H11.2289V22.796Z" fill="black"/>
<path d="M25.8765 22.796H48.5135V25.4592H25.8765V22.796Z" fill="black"/>
<path d="M43.1871 28.1222H48.5135V30.7854H43.1871V28.1222Z" fill="black"/>
<path d="M19.2184 28.1222H40.5238V30.7854H19.2184V28.1222Z" fill="black"/>
<path d="M5.90277 28.1222H16.5555V30.7854H5.90277V28.1222Z" fill="black"/>
<path d="M29.8711 33.4487H40.5238V36.1119H29.8711V33.4487Z" fill="black"/>
<path d="M5.90277 33.4487H27.2082V36.1119H5.90277V33.4487Z" fill="black"/>
<path d="M11.2289 44.1013H23.2132V46.7645H11.2289V44.1013Z" fill="black"/>
<path d="M25.8765 44.1013H40.524V46.7645H25.8765V44.1013Z" fill="black"/>
<path d="M19.2184 49.4279H35.1975V52.091H19.2184V49.4279Z" fill="black"/>
<path d="M5.90277 49.4279H16.5555V52.091H5.90277V49.4279Z" fill="black"/>
<path d="M24.5449 54.7542H31.2029V57.4173H24.5449V54.7542Z" fill="black"/>
<path d="M5.90277 54.7542H21.8818V57.4173H5.90277V54.7542Z" fill="black"/>
<path d="M13.8922 38.7748H28.5397V41.438H13.8922V38.7748Z" fill="black"/>
<path d="M8.5658 38.7748H11.229V41.438H8.5658V38.7748Z" fill="black"/>
<path d="M13.8922 17.4697H28.5397V20.1329H13.8922V17.4697Z" fill="black"/>
<path d="M8.5658 17.4697H11.229V20.1329H8.5658V17.4697Z" fill="black"/>
<path d="M31.2028 61.4122H39.1924V64.0754H31.2028V61.4122Z" fill="black"/>
<path d="M28.5396 66.738H41.8555V69.4012H28.5396V66.738Z" fill="black"/>
<path d="M72.4422 48.2639L71.1106 42.9375C71.0669 42.7627 70.9882 42.5985 70.8792 42.455C70.7702 42.3115 70.6332 42.1916 70.4765 42.1026C70.3198 42.0136 70.1466 41.9574 69.9675 41.9373C69.7885 41.9171 69.6071 41.9336 69.4346 41.9856L62.5186 44.0704C61.3155 42.5444 59.6584 41.4405 57.7867 40.9183C55.9149 40.3962 53.9257 40.4828 52.1064 41.1656L46.5169 43.2616C45.9307 43.4798 45.4033 43.8314 44.9767 44.2888C44.55 44.7461 44.2357 45.2965 44.0587 45.8964C43.8817 46.4963 43.8469 47.1292 43.957 47.7449C44.0671 48.3606 44.3191 48.9422 44.693 49.4436L40.1396 50.8162C39.9292 50.8795 39.7377 50.994 39.5822 51.1494L34.2559 56.4758C34.0697 56.662 33.9429 56.8993 33.8915 57.1576C33.8402 57.4159 33.8666 57.6836 33.9673 57.9269C34.0681 58.1702 34.2388 58.3782 34.4578 58.5245C34.6767 58.6708 34.9342 58.749 35.1975 58.749H43.1871C43.3231 58.749 43.4583 58.7282 43.5881 58.6872L46.1602 57.875C46.0188 58.68 46.0732 59.5072 46.3189 60.2868C46.5646 61.0664 46.9943 61.7753 47.5718 62.3538L49.2933 64.0753H48.5134C48.1603 64.0754 47.8216 64.2157 47.5719 64.4654C47.3222 64.7151 47.1819 65.0538 47.1818 65.4069V69.4017H45.8503C45.4971 69.4017 45.1584 69.542 44.9087 69.7917C44.659 70.0415 44.5187 70.3801 44.5187 70.7333V82.7176H47.1818V72.0649H61.8293V82.7176H64.4925V70.7333C64.4925 70.3801 64.3522 70.0415 64.1025 69.7917C63.8528 69.542 63.5141 69.4017 63.1609 69.4017V65.4069C63.1609 65.0538 63.0206 64.7151 62.7709 64.4654C62.5212 64.2157 62.1825 64.0754 61.8293 64.0753H61.3207L64.3519 58.013C64.4444 57.8281 64.4925 57.6241 64.4925 57.4174V52.0858L71.5515 49.8567C71.8749 49.7546 72.1471 49.5329 72.3127 49.2369C72.4782 48.9409 72.5245 48.5929 72.4422 48.2639ZM47.452 45.7551L53.0414 43.659C54.158 43.2397 55.3686 43.136 56.5404 43.3592C57.7121 43.5825 58.7998 44.1242 59.684 44.9248L49.6389 47.9528C48.7461 47.5251 47.7201 47.4686 46.7858 47.7957C46.6722 47.6235 46.599 47.4279 46.5715 47.2234C46.544 47.0189 46.563 46.8109 46.627 46.6148C46.691 46.4187 46.7985 46.2396 46.9413 46.0907C47.0841 45.9419 47.2587 45.8271 47.452 45.7551H47.452ZM42.9818 56.0858H38.4122L41.2287 53.2693L44.3738 52.3213C44.497 52.7909 44.7097 53.2322 45.0003 53.6211L46.1083 55.0985L42.9818 56.0858ZM49.845 69.4017V66.7385H60.4977V69.4017H49.845ZM61.8293 57.103L58.3432 64.0753H53.0599L49.4551 60.4705C48.9992 60.0136 48.7431 59.3945 48.7431 58.749C48.7431 58.1035 48.9992 57.4844 49.4551 57.0274C49.6817 56.8008 49.819 56.5 49.8417 56.1802C49.8644 55.8605 49.7711 55.5433 49.5788 55.2869L47.131 52.0233C46.9568 51.7911 46.8808 51.5 46.9191 51.2123C46.9574 50.9247 47.1071 50.6636 47.3359 50.4852C47.5648 50.3068 47.8545 50.2253 48.1428 50.2583C48.4311 50.2913 48.6949 50.4361 48.8775 50.6616L52.4055 55.0177L55.0278 58.2555L57.0974 56.5793L55.7055 54.8607L61.8293 52.9269V57.103ZM53.9042 52.6366L51.8288 50.0741L68.8659 44.9385L69.5547 47.6943L53.9042 52.6366Z" fill="black"/>
</svg>
